<?xml version="1.0" encoding="utf-8"?>
<!-- Generator: Adobe Illustrator 24.0.1, SVG Export Plug-In . SVG Version: 6.00 Build 0)  -->
<svg version="1.1" id="Layer_1" xmlns="http://www.w3.org/2000/svg" xmlns:xlink="http://www.w3.org/1999/xlink" x="0px" y="0px"
	 viewBox="0 0 542 679.7" style="enable-background:new 0 0 542 679.7;" xml:space="preserve">
<style type="text/css">
	.st0{clip-path:url(#SVGID_2_);fill:url(#SVGID_3_);}
	.st1{clip-path:url(#SVGID_5_);fill:#423933;}
	.st2{clip-path:url(#SVGID_7_);fill:#333333;}
	.st3{clip-path:url(#SVGID_9_);fill:#FFFFFF;}
	.st4{clip-path:url(#SVGID_11_);fill:#412312;}
	.st5{fill:#FFFFFF;}
	.st6{fill:#1A2935;}
	.st7{fill:#163C4E;}
	.st8{fill:#CBCACA;}
	.st9{fill:#213C4E;}
	.st10{opacity:0.5;enable-background:new    ;}
	.st11{clip-path:url(#SVGID_13_);fill:#2D76BB;}
	.st12{opacity:0.5;clip-path:url(#SVGID_15_);enable-background:new    ;}
	.st13{opacity:0.2;clip-path:url(#SVGID_17_);fill:url(#SVGID_18_);enable-background:new    ;}
	.st14{fill:#5F3813;}
	.st15{fill:#412312;}
	.st16{fill:#333333;}
	.st17{fill:#754D24;}
	.st18{clip-path:url(#SVGID_20_);fill:#124678;}
	.st19{clip-path:url(#SVGID_22_);}
	.st20{fill:url(#SVGID_23_);}
	.st21{display:none;opacity:0.9;clip-path:url(#SVGID_25_);}
	.st22{display:inline;fill:#FFFFFF;}
	.st23{clip-path:url(#SVGID_27_);fill:#F0F0F0;}
	.st24{clip-path:url(#SVGID_29_);fill:#F0F0F0;}
	.st25{display:none;opacity:0.5;clip-path:url(#SVGID_31_);enable-background:new    ;}
	.st26{display:none;opacity:0.6;clip-path:url(#SVGID_33_);fill:url(#SVGID_34_);enable-background:new    ;}
	.st27{display:none;opacity:0.1;clip-path:url(#SVGID_36_);fill:#FFFFFF;enable-background:new    ;}
	.st28{display:none;opacity:0.2;clip-path:url(#SVGID_38_);enable-background:new    ;}
	.st29{opacity:0.4;enable-background:new    ;}
	.st30{fill:url(#face_2_);}
	.st31{clip-path:url(#SVGID_40_);fill:url(#SVGID_41_);}
	.st32{clip-path:url(#SVGID_43_);fill:#E6E6E6;}
	.st33{clip-path:url(#SVGID_47_);}
	.st34{clip-path:url(#SVGID_49_);fill:url(#SVGID_50_);}
	.st35{clip-path:url(#SVGID_52_);}
	.st36{clip-path:url(#SVGID_54_);fill:#412312;}
	.st37{clip-path:url(#SVGID_56_);fill:#412312;}
	.st38{fill:#241C18;}
	.st39{fill:url(#SVGID_57_);}
	.st40{fill:url(#SVGID_58_);}
	.st41{fill:url(#SVGID_59_);}
	.st42{fill:url(#SVGID_60_);}
	.st43{fill:#E85222;}
	.st44{fill:#83BB32;}
	.st45{fill:#29A9E1;}
	.st46{fill:#FABB10;}
</style>
<g id="CHARACTER_1_">
	<g id="Quils_1_">
		<g>
			<g>
				<defs>
					<path id="SVGID_1_" d="M517.4,470.6c-1.3-5.2-2.7-10.4-4.3-15.5c-3.1-10.3-6.7-20.5-10.7-30.4c-4-10-8.4-19.8-13.3-29.4
						c-3.5-6.9-7.2-13.7-11.2-20.3c2.7,2.2,5.4,4.3,8.1,6.4c-3.2-2.9-6.4-5.9-9.6-8.9c-1.1-1.8-2.2-3.6-3.3-5.3
						c-4.2-6.6-8.7-13.1-13.4-19.4c-3.2-6.1-6.7-12.8-10.1-18.7c1,0.8,2,1.6,3,2.5c6.6,5.5,13,11.4,19.1,17.6
						c6.1,6.2,11.9,12.7,17.2,19.6c-4.8-7.3-10.1-14.2-15.7-20.9c-5.6-6.7-11.6-13.1-17.9-19.2c-3.1-3.1-6.4-6-9.7-8.9
						c-1.3-1.1-2.6-2.2-4-3.3c-0.8-1-1.5-1.9-2.1-2.6c-5.8-6.1-11.8-10.2-18.1-13.6c-0.9-1.1-1.7-2.1-2.6-3.2
						c16.3,4.8,23.4,6.2,23.4,6.2s-5.8-6.8-9.9-15.3c-1-2.8-2.1-5.7-3.2-8.6l0,0l0,0c-4.2-11.2-8.8-22.3-13.6-33.4
						c-0.3-0.6,3.6-0.1,7.2,0.5c2.1,1.5,4.1,3.1,6.1,4.7c2.8,2.2,5.4,4.7,8.1,7.1c1.3,1.3,2.5,2.6,3.8,3.9l1.9,1.9l1.8,2l3.6,4.1
						l3.4,4.3l1.7,2.1c0.6,0.7,1.1,1.5,1.6,2.2l3.2,4.4c8.3,11.9,15.2,24.9,21.2,38.2c-5.4-13.6-11.7-26.9-19.5-39.3l-3-4.6
						c-0.5-0.8-1-1.6-1.5-2.3l-1.6-2.2l-3.2-4.5l-3.5-4.3l-1.7-2.2l-1.9-2.1c-1.2-1.4-2.5-2.8-3.7-4.1c-2.6-2.6-5.2-5.3-8-7.7
						c-4.1-3.7-8.5-7.2-13.1-10.3c-3.6-3.6-7.4-7.5-10-10.6c7.8,2.2,15.6,4.1,23.6,5.4c8.7,1.4,17.5,2.1,26.2,1.4
						c-8.7,0-17.4-1.3-25.8-3.3c-8.4-2-16.7-4.7-24.8-7.8c-0.9-0.4-1.8-0.7-2.7-1.1c-6.3-13.4-12.9-26.6-19.7-39.3
						c0.4-0.4,0.7-0.9,1.1-1.3c4.4-5,9-9.9,13.7-14.5c4.7-4.7,9.7-9.2,14.8-13.5c2.6-2.1,5.1-4.3,7.8-6.3c2.6-2.1,5.3-4,8-6
						c10.9-7.8,22.4-14.7,34.5-20.6c-12.3,5.3-24.3,11.7-35.6,19c-2.8,1.9-5.6,3.7-8.4,5.7c-2.8,1.9-5.5,4-8.2,6
						c-5.3,4.1-10.6,8.4-15.6,12.9s-9.9,9.2-14.6,14.1c-8.3-15.2-16.8-29.8-25.4-43.4c3-5.3,5.9-10.5,8.8-15.8
						c5.5-10.1,10.8-20.3,15.3-30.9c-4.9,10.4-10.7,20.3-16.5,30.2c-2.9,4.9-5.9,9.7-8.8,14.6c-1.6-2.4-3.1-4.9-4.7-7.2
						c-2-3-0.6-8.7,2.6-9.7l-10.8-2.5c-1.5-2.1-2.7-4.3-3.7-6.7c0.8-1.5,1.7-3.1,2.5-4.6c4.2-7.5,8.7-14.8,13.6-22
						c4.9-7.1,10-14.1,15.5-20.8c-11.6,7.4-32.4,26.4-39.8,37.7c-0.5-4.1,9-26.9,9-26.9S329,87.7,324,97.5c-5,9.9-15.1,30.1-21.5,51
						c-1.2-0.6-2.4-1.2-3.7-1.7c13.8-57.1,28-94.2,34.2-110.4c-12.2,22.3-19.5,37.2-25.9,47.2c0,0-14.2-7.6-29.3-10.4
						c0-0.5-1.9-16.3,5.6-54.3c-8.3,25.7-12.5,48.6-13,53.2c0,0-10.6-0.1-13.1,0.2c-2.7-6-5.4-14-5.4-14s0.9,11.4,0.3,15.2
						c-11.2,3.1-27.4,9.6-36.3,15.1c-3-7.3-11.8-29.1-14.9-36.3l-3.7-8.5l-3.9-8.4c-1.3-2.8-2.7-5.6-4.1-8.3
						c-0.7-1.4-1.4-2.7-2.2-4.1c0,0,1.3,2.8,1.9,4.2c1.2,2.8,2.5,5.6,3.8,8.5l3.6,8.5l3.4,8.6c3,7.7,10.9,29.5,13.7,37.2
						c-6.9,5-17.4,13.6-24.1,21c-7.6-13.2-14.1-26.3-24.1-49.3c3.7,11.2,7.2,22.4,10.7,33.6c0,0,0,0-0.1,0c0.1,0.3,0.2,0.6,0.3,0.8
						c1.6,5.4,3.3,10.7,4.9,16.1l7.6,25.3l7.4,25.3v0.2c0.4,1.4,4.2,13.2,4.2,13.2s-46.3-75.8-50.5-83.3c3.4,7.3,13.4,33,16.5,40.5
						c0,0-2.1,3.1-10.4,16.1l0,0c-2.6,4.4-5.3,9-7.9,13.6c-2.3-1.1-4.5-2.2-6.8-3.2l-3.8-1.7l-3.9-1.6c-10.4-4.2-21-7.6-31.8-10.3
						c10.7,3.2,21.1,7,31.3,11.6l3.8,1.7l3.7,1.8c2.2,1.1,4.4,2.2,6.6,3.4c-11.3,20.2-22.3,41.8-32.3,63.9c-0.3,0.7-1.5,1.9-3,3.2
						c-4.3,3-8.8,5.8-13.4,8.4c-1,0.6-1.9,1.1-2.9,1.6l-2.9,1.5c-2,0.9-4,2-6,2.8c-4,1.9-8.2,3.4-12.4,4.9c4.3-1.2,8.6-2.4,12.8-4
						c2.1-0.7,4.2-1.6,6.3-2.4l3.1-1.3c1-0.4,2.1-0.9,3.1-1.4c2.6-1.2,5.1-2.5,7.6-3.8c1.4,0.7,2.9,1.7,2.5,2.9
						c-2.8,6.4-5.4,12.8-8,19.3c-4.6,2.8-9.1,5.8-13.5,8.9c-5.6,3.9-10.9,8-16.2,12.2c-2.6,2.2-5.2,4.3-7.7,6.6
						c-2.6,2.2-5,4.5-7.5,6.9C47,304.4,38,314.5,30,325.3c8.5-10.4,17.9-20,28-28.8c2.6-2.2,5.1-4.4,7.7-6.4
						c2.6-2.1,5.3-4.1,7.9-6.1c5.4-3.9,10.9-7.8,16.5-11.3c2.8-1.8,5.7-3.5,8.6-5.2c-6,15.2-11.4,30.5-16.1,45.6
						c-2.9,7.8-5.6,16.5-8.2,25c-1.7,1.1-3.4,2.1-5.2,3c-3.8,2.1-7.9,3.9-12,5.3c-4.2,1.4-8.5,2.3-12.9,2.5
						c4.4,0.1,8.9-0.5,13.2-1.6s8.5-2.6,12.6-4.5c1.1-0.5,2.2-1.1,3.4-1.6c-3.7,12.6-6.8,24.4-8.7,31.9
						c-8.2,13.1-15.3,26.8-21.5,40.9c-4,9.1-7.6,18.5-10.7,27.9c-3,9.5-5.7,19.1-7.4,28.9c2-9.7,5-19.2,8.4-28.6
						c3.4-9.3,7.2-18.5,11.5-27.4c8.6-17.9,18.7-35,30.4-50.9l2.2-3l1.1-1.5l1.1-1.5l4.6-5.8c1.5-1.9,3.2-3.8,4.7-5.7l2.4-2.8
						l2.5-2.8c0.5-0.6,1-1.2,1.5-1.7c6.1-5.3,13.1-10.5,21.1-15C83.5,366,78.6,377.7,64,415.4c-11.6,28.6-21.9,82.2-21.9,82.2
						s3.9-8.7,9.5-19.9c-0.6,2.8-1.1,5.5-1.7,8.3c-1.8,9.5-3.4,19.1-4.8,28.7c-2.7,19.2-4.7,38.4-5.6,57.8
						c1.5-19.3,4.2-38.4,7.5-57.5c1.7-9.5,3.6-19,5.7-28.4c1.7-7.3,3.4-14.5,5.4-21.7c2.4-4.5,4.9-9.1,7.4-13.4
						c-0.1,11.1,4.8,29.5,8.2,41c-0.1,2.3-0.3,4.5-0.4,6.8c-0.1,1.6-0.1,3.2-0.2,4.8l-0.1,4.8l-0.1,4.8c0,1.6,0,3.2,0,4.8
						c-0.1,12.8,0.5,25.5,1.5,38.2c1.1,12.7,2.7,25.3,5.2,37.8c-1.9-12.6-2.8-25.2-3.3-37.9c-0.4-12.7-0.3-25.3,0.4-38
						c0.1-1.6,0.1-3.2,0.3-4.7l0.4-4.7l0.4-4.7c0.1-1.6,0.2-3.1,0.4-4.7l0,0c3.6-7.9,8.2-15.1,13.9-21.4c2.7-3.1,5.8-6.4,9-9.8
						c-1.4,9.6-1.9,16.5-1.9,16.5s13.9-29.4,18.2-33.5c-10.3,31.7-14,39-21.1,62.9s-3.1,42.1-3.1,42.1s4.3-14.9,10.7-24.3
						c-1.7,9.5-2.8,19.1-3.4,28.7c-0.3,6.9-0.3,13.7,0,20.6c0.1,1.7,0.2,3.4,0.3,5.1l0.2,2.6l0.3,2.6c0.2,1.7,0.3,3.4,0.6,5.1
						l0.7,5.1c0.2,1.7,0.6,3.4,0.9,5c0.3,1.7,0.6,3.4,1,5c0.8,3.3,1.5,6.7,2.4,9.9c1.7,6.6,4,13,6.5,19.4c-2.1-6.5-4.1-13-5.5-19.6
						c-0.8-3.3-1.3-6.6-2-10c-0.3-1.7-0.5-3.4-0.7-5c-0.2-1.7-0.5-3.3-0.6-5l-0.5-5c-0.1-1.7-0.2-3.4-0.3-5.1l-0.1-2.5l-0.1-2.5
						c0-1.7-0.1-3.4-0.1-5.1c0-6.8,0.4-13.5,1-20.2c1.1-10.5,2.9-21,5.4-31.2c1.8,1.8,3.9,3.9,6.2,6c0.1,1.5,0.2,2.9,0.3,4.4
						c0.8,11.4,2.2,22.7,4.7,33.8c-1.9-11.2-2.6-22.5-2.8-33.9c0-0.7,0-1.5,0-2.2c0.9,0.9,1.9,1.7,2.8,2.6
						c1.5,1.4-0.2,13.4,2.6,26.3c-0.1-15.6,13.2-41.4,13.2-41.4s-2.1,11.8-2,26.9c0.8,21.8,9,51.3,9,51.3s0.9-30,5.3-41.8
						c23,15.6,54.5,26.8,85.9,31.1c2.6,0.4,5.2-21.6,7.8-21.3c1.7,0.2-2,45.9-2,45.9s9.3-17.5,11.5-23c3.3,0.2,6.5,0.3,9.7,0.3
						c1.9,0,3.7,0,5.5-0.1c1.6,0,3.4-22.4,3.4-22.4l2.1,6.5c0.8,3.6,1.6,7.2,2.3,10.8c0.9,4.1,1.4,8.3,2.1,12.5l0.7,6.3
						c0.1,1.1,0.2,2.1,0.3,3.2l0.2,3.2c0.1,2.1,0.3,4.2,0.4,6.4l0.1,6.4c0,1.1,0.1,2.1,0.1,3.2l-0.1,3.2l-0.2,6.4l1.2-6.3l0.6-3.2
						c0.2-1.1,0.3-2.1,0.4-3.2l0.8-6.4c0.2-2.1,0.4-4.3,0.6-6.5l0.3-3.2c0-0.7,0.1-1.5,0.1-2.2c0-0.2,3.8-16.1,6.3-16.5
						c3.2-0.4,6.3-1,9.5-1.6c2-0.4,6,6.2,6,6.2l-0.7-38.5l12.2,51.2c0,0,1.1-23.3,2.3-23.6c24.8-7.3,47.6-19.1,67.4-33.7
						c3.2-2.3,16.1,37.2,16.1,37.2s5.3-21.8,2-52.1c2.9-2.7,5.8-5.5,8.6-8.3c0.4-0.4,0.9-0.9,1.3-1.4c0.1,0.3,0.3,0.7,0.4,1l0.9,2.2
						l0.8,2.3l1.6,4.6l1.4,4.6l0.7,2.3c0.2,0.8,0.4,1.6,0.6,2.3l1.2,4.7c0.8,3.1,1.4,6.3,2.1,9.5c-0.1-3.2-0.1-6.5-0.2-9.8l-0.3-4.9
						c-0.1-0.8-0.1-1.6-0.1-2.5l-0.2-2.4l-0.5-4.9l-0.6-4.9l-0.3-2.5l-0.4-2.4c-0.3-1.6-0.5-3.3-0.8-4.9c-0.1-0.3-0.1-0.6-0.2-0.9
						c0.2-0.3,0.5-0.5,0.7-0.8c1.1-1.2,5.2,2.5,9,6.4c0.1,0.3,0.1,0.5,0.2,0.8c1.7,8.7,3.2,17.5,4.5,26.4l0.9,6.6
						c0.3,2.2,0.6,4.4,0.8,6.7l0.7,6.7l0.6,6.7c0.4,4.5,0.7,8.9,1,13.4s0.4,9,0.7,13.4c0.1-4.5,0.3-9,0.3-13.5s0.1-9,0-13.5
						l-0.1-6.7l-0.2-6.7c-0.1-2.2-0.2-4.5-0.3-6.7l-0.4-6.7c-0.5-7.1-1.1-14.3-1.9-21.4c-0.4-4.5-1.5-15.5-3.8-26.8
						c-0.3-1.4-0.6-2.8-1-4.2c-0.1-0.5-0.2-1-0.3-1.5c0-0.1,0-0.2-0.1-0.3c0-0.1-0.1-0.2-0.2-0.4c-7-26.3-21.8-59.6-25.3-67.6
						l0.2,0.3c0.4,0.6,0.7,1.2,1.1,1.8l2.2,3.6c5.9,9.6,11.1,19.6,15.9,29.8l3.5,7.7l3.2,7.8c2,5.3,4,10.6,5.8,16
						c3.5,10.8,6.5,21.7,8.4,32.9c-1.2-11.3-3.6-22.5-6.5-33.5c-1.4-5.5-3.1-11-4.9-16.4l-2.8-8.1l-3.1-8c-3.7-9.1-7.6-18.2-12.2-27
						c8,6.3,18.6,15.3,26.3,24.2c1.8,4.8,3.5,9.7,5,14.6c2.1,6.4,3.9,12.9,5.6,19.5l2.4,9.9l2.1,9.9c2.6,13.3,4.6,26.7,5.7,40.2
						l0.4,5.1c0.1,0.8,0.2,1.7,0.2,2.5l0.1,2.5l0.4,10.2c0.2,3.4,0.1,6.8,0.1,10.2v10.2l0.5-10.2c0.2-3.4,0.4-6.8,0.4-10.2l0.1-10.2
						v-2.6c0-0.9-0.1-1.7-0.1-2.6l-0.2-5.1c-0.4-13.6-1.8-27.2-3.8-40.8l-1.6-10.1l-2-10.1c-1.1-5.2-2.3-10.4-3.6-15.5
						c9.9,16.6,20,34.2,20,34.2l-27.4-88.5l22,31.4c0,0,1.5-12-1.7-28.2c0.7,1.4,1.4,2.7,2.1,4.1l2.1,4.6l1.9,4.7
						c0.3,0.8,0.7,1.6,1,2.4l0.8,2.4c0.6,1.6,1.2,3.2,1.7,4.8c0.9,3.2,2,6.5,2.8,9.8c1.8,6.6,2.8,13.3,3.7,20.1
						c-0.3-6.8-0.6-13.7-1.8-20.5c-0.4-3.4-1.2-6.8-1.9-10.2c-0.4-1.7-0.8-3.4-1.2-5l-0.6-2.5c-0.2-0.8-0.5-1.7-0.7-2.5l-1.5-5
						l-1.7-4.9c-0.5-1.7-1.2-3.3-1.9-4.9c-0.7-1.6-1.3-3.2-2-4.8l-2.2-4.8c-0.7-1.6-1.5-3.1-2.3-4.7c-0.8-1.6-1.6-3.1-2.4-4.6
						c-0.8-1.5-1.7-3.1-2.6-4.6c-3.5-6.1-7.4-11.9-11.5-17.5c-2.6-3.5-5.3-6.9-8-10.2c-8-11-16.2-19.9-23.9-27.4
						c-0.4-5-0.9-10.1-1.6-15.2c15.2,7.5,27,14.4,37,21.2c0.3,0.7,0.6,1.4,0.8,2.2l1.4,4.3c0.2,0.7,0.5,1.4,0.7,2.2l0.6,2.2
						c0.4,1.5,0.8,2.9,1.2,4.4l1,4.4l0.5,2.2l0.4,2.2l0.8,4.5c0.1,0.8,0.2,1.5,0.3,2.3l0.3,2.3l0.5,4.6v-4.6v-2.3
						c0-0.8,0-1.5-0.1-2.3l-0.3-4.6l-0.1-2.3l-0.3-2.3l-0.5-4.6c-0.2-1.5-0.5-3-0.7-4.6l-0.4-2.3c-0.1-0.8-0.3-1.5-0.5-2.3l-0.4-2
						c1.8,1.3,3.5,2.5,5.1,3.8c1.2,1,2.4,2.1,3.7,3.1c0.8,0.7,1.6,1.3,2.4,2c0.5,0.8,1.1,1.5,1.6,2.3c6,8.8,11.5,18,16.7,27.3
						c5.1,9.4,9.8,19,14.1,28.8s8.1,19.8,11.5,30c1.7,5.1,3.3,10.2,4.7,15.4s2.8,10.4,3.9,15.6C519.9,481,518.7,475.8,517.4,470.6z
						 M420.5,299.7c-3.4-1.9-6.9-3.6-10.5-5.4c2.7,0.8,5.1,1.6,7.4,2.2C418.5,297.6,419.5,298.7,420.5,299.7z"/>
				</defs>
				<clipPath id="SVGID_2_">
					<use xlink:href="#SVGID_1_"  style="overflow:visible;"/>
				</clipPath>
				
					<radialGradient id="SVGID_3_" cx="175.5806" cy="86.5" r="331.3369" fx="-4.4646" fy="-44.9631" gradientTransform="matrix(0.9186 0 0 1 107.9117 208)" gradientUnits="userSpaceOnUse">
					<stop  offset="1.856055e-02" style="stop-color:#F0F0F0"/>
					<stop  offset="1" style="stop-color:#FFFFFF"/>
				</radialGradient>
				<ellipse class="st0" cx="269.2" cy="294.5" rx="304.4" ry="331.3"/>
			</g>
		</g>
		<g>
			<g>
				<defs>
					<path id="SVGID_4_" d="M517.4,470.6c-1.3-5.2-2.7-10.4-4.3-15.5c-3.1-10.3-6.7-20.5-10.7-30.4c-4-10-8.4-19.8-13.3-29.4
						c-3.5-6.9-7.2-13.7-11.2-20.3c2.7,2.2,5.4,4.3,8.1,6.4c-3.2-2.9-6.4-5.9-9.6-8.9c-1.1-1.8-2.2-3.6-3.3-5.3
						c-4.2-6.6-8.7-13.1-13.4-19.4c-3.2-6.1-6.7-12.8-10.1-18.7c1,0.8,2,1.6,3,2.5c6.6,5.5,13,11.4,19.1,17.6
						c6.1,6.2,11.9,12.7,17.2,19.6c-4.8-7.3-10.1-14.2-15.7-20.9c-5.6-6.7-11.6-13.1-17.9-19.2c-3.1-3.1-6.4-6-9.7-8.9
						c-1.3-1.1-2.6-2.2-4-3.3c-0.8-1-1.5-1.9-2.1-2.6c-5.8-6.1-11.8-10.2-18.1-13.6c-0.9-1.1-1.7-2.1-2.6-3.2
						c16.3,4.8,23.4,6.2,23.4,6.2s-5.8-6.8-9.9-15.3c-1-2.8-2.1-5.7-3.2-8.6l0,0l0,0c-4.2-11.2-8.8-22.3-13.6-33.4
						c-0.3-0.6,3.6-0.1,7.2,0.5c2.1,1.5,4.1,3.1,6.1,4.7c2.8,2.2,5.4,4.7,8.1,7.1c1.3,1.3,2.5,2.6,3.8,3.9l1.9,1.9l1.8,2l3.6,4.1
						l3.4,4.3l1.7,2.1c0.6,0.7,1.1,1.5,1.6,2.2l3.2,4.4c8.3,11.9,15.2,24.9,21.2,38.2c-5.4-13.6-11.7-26.9-19.5-39.3l-3-4.6
						c-0.5-0.8-1-1.6-1.5-2.3l-1.6-2.2l-3.2-4.5l-3.5-4.3l-1.7-2.2l-1.9-2.1c-1.2-1.4-2.5-2.8-3.7-4.1c-2.6-2.6-5.2-5.3-8-7.7
						c-4.1-3.7-8.5-7.2-13.1-10.3c-3.6-3.6-7.4-7.5-10-10.6c7.8,2.2,15.6,4.1,23.6,5.4c8.7,1.4,17.5,2.1,26.2,1.4
						c-8.7,0-17.4-1.3-25.8-3.3c-8.4-2-16.7-4.7-24.8-7.8c-0.9-0.4-1.8-0.7-2.7-1.1c-6.3-13.4-12.9-26.6-19.7-39.3
						c0.4-0.4,0.7-0.9,1.1-1.3c4.4-5,9-9.9,13.7-14.5c4.7-4.7,9.7-9.2,14.8-13.5c2.6-2.1,5.1-4.3,7.8-6.3c2.6-2.1,5.3-4,8-6
						c10.9-7.8,22.4-14.7,34.5-20.6c-12.3,5.3-24.3,11.7-35.6,19c-2.8,1.9-5.6,3.7-8.4,5.7c-2.8,1.9-5.5,4-8.2,6
						c-5.3,4.1-10.6,8.4-15.6,12.9s-9.9,9.2-14.6,14.1c-8.3-15.2-16.8-29.8-25.4-43.4c3-5.3,5.9-10.5,8.8-15.8
						c5.5-10.1,10.8-20.3,15.3-30.9c-4.9,10.4-10.7,20.3-16.5,30.2c-2.9,4.9-5.9,9.7-8.8,14.6c-1.6-2.4-3.1-4.9-4.7-7.2
						c-2-3-0.6-8.7,2.6-9.7l-10.8-2.5c-1.5-2.1-2.7-4.3-3.7-6.7c0.8-1.5,1.7-3.1,2.5-4.6c4.2-7.5,8.7-14.8,13.6-22
						c4.9-7.1,10-14.1,15.5-20.8c-11.6,7.4-32.4,26.4-39.8,37.7c-0.5-4.1,9-26.9,9-26.9S329,87.7,324,97.5c-5,9.9-15.1,30.1-21.5,51
						c-1.2-0.6-2.4-1.2-3.7-1.7c13.8-57.1,28-94.2,34.2-110.4c-12.2,22.3-19.5,37.2-25.9,47.2c0,0-14.2-7.6-29.3-10.4
						c0-0.5-1.9-16.3,5.6-54.3c-8.3,25.7-12.5,48.6-13,53.2c0,0-10.6-0.1-13.1,0.2c-2.7-6-5.4-14-5.4-14s0.9,11.4,0.3,15.2
						c-11.2,3.1-27.4,9.6-36.3,15.1c-3-7.3-11.8-29.1-14.9-36.3l-3.7-8.5l-3.9-8.4c-1.3-2.8-2.7-5.6-4.1-8.3
						c-0.7-1.4-1.4-2.7-2.2-4.1c0,0,1.3,2.8,1.9,4.2c1.2,2.8,2.5,5.6,3.8,8.5l3.6,8.5l3.4,8.6c3,7.7,10.9,29.5,13.7,37.2
						c-6.9,5-17.4,13.6-24.1,21c-7.6-13.2-14.1-26.3-24.1-49.3c3.7,11.2,7.2,22.4,10.7,33.6c0,0,0,0-0.1,0c0.1,0.3,0.2,0.6,0.3,0.8
						c1.6,5.4,3.3,10.7,4.9,16.1l7.6,25.3l7.4,25.3v0.2c0.4,1.4,4.2,13.2,4.2,13.2s-46.3-75.8-50.5-83.3c3.4,7.3,13.4,33,16.5,40.5
						c0,0-2.1,3.1-10.4,16.1l0,0c-2.6,4.4-5.3,9-7.9,13.6c-2.3-1.1-4.5-2.2-6.8-3.2l-3.8-1.7l-3.9-1.6c-10.4-4.2-21-7.6-31.8-10.3
						c10.7,3.2,21.1,7,31.3,11.6l3.8,1.7l3.7,1.8c2.2,1.1,4.4,2.2,6.6,3.4c-11.3,20.2-22.3,41.8-32.3,63.9c-0.3,0.7-1.5,1.9-3,3.2
						c-4.3,3-8.8,5.8-13.4,8.4c-1,0.6-1.9,1.1-2.9,1.6l-2.9,1.5c-2,0.9-4,2-6,2.8c-4,1.9-8.2,3.4-12.4,4.9c4.3-1.2,8.6-2.4,12.8-4
						c2.1-0.7,4.2-1.6,6.3-2.4l3.1-1.3c1-0.4,2.1-0.9,3.1-1.4c2.6-1.2,5.1-2.5,7.6-3.8c1.4,0.7,2.9,1.7,2.5,2.9
						c-2.8,6.4-5.4,12.8-8,19.3c-4.6,2.8-9.1,5.8-13.5,8.9c-5.6,3.9-10.9,8-16.2,12.2c-2.6,2.2-5.2,4.3-7.7,6.6
						c-2.6,2.2-5,4.5-7.5,6.9C47,304.4,38,314.5,30,325.3c8.5-10.4,17.9-20,28-28.8c2.6-2.2,5.1-4.4,7.7-6.4
						c2.6-2.1,5.3-4.1,7.9-6.1c5.4-3.9,10.9-7.8,16.5-11.3c2.8-1.8,5.7-3.5,8.6-5.2c-6,15.2-11.4,30.5-16.1,45.6
						c-2.9,7.8-5.6,16.5-8.2,25c-1.7,1.1-3.4,2.1-5.2,3c-3.8,2.1-7.9,3.9-12,5.3c-4.2,1.4-8.5,2.3-12.9,2.5
						c4.4,0.1,8.9-0.5,13.2-1.6s8.5-2.6,12.6-4.5c1.1-0.5,2.2-1.1,3.4-1.6c-3.7,12.6-6.8,24.4-8.7,31.9
						c-8.2,13.1-15.3,26.8-21.5,40.9c-4,9.1-7.6,18.5-10.7,27.9c-3,9.5-5.7,19.1-7.4,28.9c2-9.7,5-19.2,8.4-28.6
						c3.4-9.3,7.2-18.5,11.5-27.4c8.6-17.9,18.7-35,30.4-50.9l2.2-3l1.1-1.5l1.1-1.5l4.6-5.8c1.5-1.9,3.2-3.8,4.7-5.7l2.4-2.8
						l2.5-2.8c0.5-0.6,1-1.2,1.5-1.7c6.1-5.3,13.1-10.5,21.1-15C83.5,366,78.6,377.7,64,415.4c-11.6,28.6-21.9,82.2-21.9,82.2
						s3.9-8.7,9.5-19.9c-0.6,2.8-1.1,5.5-1.7,8.3c-1.8,9.5-3.4,19.1-4.8,28.7c-2.7,19.2-4.7,38.4-5.6,57.8
						c1.5-19.3,4.2-38.4,7.5-57.5c1.7-9.5,3.6-19,5.7-28.4c1.7-7.3,3.4-14.5,5.4-21.7c2.4-4.5,4.9-9.1,7.4-13.4
						c-0.1,11.1,4.8,29.5,8.2,41c-0.1,2.3-0.3,4.5-0.4,6.8c-0.1,1.6-0.1,3.2-0.2,4.8l-0.1,4.8l-0.1,4.8c0,1.6,0,3.2,0,4.8
						c-0.1,12.8,0.5,25.5,1.5,38.2c1.1,12.7,2.7,25.3,5.2,37.8c-1.9-12.6-2.8-25.2-3.3-37.9c-0.4-12.7-0.3-25.3,0.4-38
						c0.1-1.6,0.1-3.2,0.3-4.7l0.4-4.7l0.4-4.7c0.1-1.6,0.2-3.1,0.4-4.7l0,0c3.6-7.9,8.2-15.1,13.9-21.4c2.7-3.1,5.8-6.4,9-9.8
						c-1.4,9.6-1.9,16.5-1.9,16.5s13.9-29.4,18.2-33.5c-10.3,31.7-14,39-21.1,62.9s-3.1,42.1-3.1,42.1s4.3-14.9,10.7-24.3
						c-1.7,9.5-2.8,19.1-3.4,28.7c-0.3,6.9-0.3,13.7,0,20.6c0.1,1.7,0.2,3.4,0.3,5.1l0.2,2.6l0.3,2.6c0.2,1.7,0.3,3.4,0.6,5.1
						l0.7,5.1c0.2,1.7,0.6,3.4,0.9,5c0.3,1.7,0.6,3.4,1,5c0.8,3.3,1.5,6.7,2.4,9.9c1.7,6.6,4,13,6.5,19.4c-2.1-6.5-4.1-13-5.5-19.6
						c-0.8-3.3-1.3-6.6-2-10c-0.3-1.7-0.5-3.4-0.7-5c-0.2-1.7-0.5-3.3-0.6-5l-0.5-5c-0.1-1.7-0.2-3.4-0.3-5.1l-0.1-2.5l-0.1-2.5
						c0-1.7-0.1-3.4-0.1-5.1c0-6.8,0.4-13.5,1-20.2c1.1-10.5,2.9-21,5.4-31.2c1.8,1.8,3.9,3.9,6.2,6c0.1,1.5,0.2,2.9,0.3,4.4
						c0.8,11.4,2.2,22.7,4.7,33.8c-1.9-11.2-2.6-22.5-2.8-33.9c0-0.7,0-1.5,0-2.2c0.9,0.9,1.9,1.7,2.8,2.6
						c1.5,1.4-0.2,13.4,2.6,26.3c-0.1-15.6,13.2-41.4,13.2-41.4s-2.1,11.8-2,26.9c0.8,21.8,9,51.3,9,51.3s0.9-30,5.3-41.8
						c23,15.6,54.5,26.8,85.9,31.1c2.6,0.4,5.2-21.6,7.8-21.3c1.7,0.2-2,45.9-2,45.9s9.3-17.5,11.5-23c3.3,0.2,6.5,0.3,9.7,0.3
						c1.9,0,3.7,0,5.5-0.1c1.6,0,3.4-22.4,3.4-22.4l2.1,6.5c0.8,3.6,1.6,7.2,2.3,10.8c0.9,4.1,1.4,8.3,2.1,12.5l0.7,6.3
						c0.1,1.1,0.2,2.1,0.3,3.2l0.2,3.2c0.1,2.1,0.3,4.2,0.4,6.4l0.1,6.4c0,1.1,0.1,2.1,0.1,3.2l-0.1,3.2l-0.2,6.4l1.2-6.3l0.6-3.2
						c0.2-1.1,0.3-2.1,0.4-3.2l0.8-6.4c0.2-2.1,0.4-4.3,0.6-6.5l0.3-3.2c0-0.7,0.1-1.5,0.1-2.2c0-0.2,3.8-16.1,6.3-16.5
						c3.2-0.4,6.3-1,9.5-1.6c2-0.4,6,6.2,6,6.2l-0.7-38.5l12.2,51.2c0,0,1.1-23.3,2.3-23.6c24.8-7.3,47.6-19.1,67.4-33.7
						c3.2-2.3,16.1,37.2,16.1,37.2s5.3-21.8,2-52.1c2.9-2.7,5.8-5.5,8.6-8.3c0.4-0.4,0.9-0.9,1.3-1.4c0.1,0.3,0.3,0.7,0.4,1l0.9,2.2
						l0.8,2.3l1.6,4.6l1.4,4.6l0.7,2.3c0.2,0.8,0.4,1.6,0.6,2.3l1.2,4.7c0.8,3.1,1.4,6.3,2.1,9.5c-0.1-3.2-0.1-6.5-0.2-9.8l-0.3-4.9
						c-0.1-0.8-0.1-1.6-0.1-2.5l-0.2-2.4l-0.5-4.9l-0.6-4.9l-0.3-2.5l-0.4-2.4c-0.3-1.6-0.5-3.3-0.8-4.9c-0.1-0.3-0.1-0.6-0.2-0.9
						c0.2-0.3,0.5-0.5,0.7-0.8c1.1-1.2,5.2,2.5,9,6.4c0.1,0.3,0.1,0.5,0.2,0.8c1.7,8.7,3.2,17.5,4.5,26.4l0.9,6.6
						c0.3,2.2,0.6,4.4,0.8,6.7l0.7,6.7l0.6,6.7c0.4,4.5,0.7,8.9,1,13.4s0.4,9,0.7,13.4c0.1-4.5,0.3-9,0.3-13.5s0.1-9,0-13.5
						l-0.1-6.7l-0.2-6.7c-0.1-2.2-0.2-4.5-0.3-6.7l-0.4-6.7c-0.5-7.1-1.1-14.3-1.9-21.4c-0.4-4.5-1.5-15.5-3.8-26.8
						c-0.3-1.4-0.6-2.8-1-4.2c-0.1-0.5-0.2-1-0.3-1.5c0-0.1,0-0.2-0.1-0.3c0-0.1-0.1-0.2-0.2-0.4c-7-26.3-21.8-59.6-25.3-67.6
						l0.2,0.3c0.4,0.6,0.7,1.2,1.1,1.8l2.2,3.6c5.9,9.6,11.1,19.6,15.9,29.8l3.5,7.7l3.2,7.8c2,5.3,4,10.6,5.8,16
						c3.5,10.8,6.5,21.7,8.4,32.9c-1.2-11.3-3.6-22.5-6.5-33.5c-1.4-5.5-3.1-11-4.9-16.4l-2.8-8.1l-3.1-8c-3.7-9.1-7.6-18.2-12.2-27
						c8,6.3,18.6,15.3,26.3,24.2c1.8,4.8,3.5,9.7,5,14.6c2.1,6.4,3.9,12.9,5.6,19.5l2.4,9.9l2.1,9.9c2.6,13.3,4.6,26.7,5.7,40.2
						l0.4,5.1c0.1,0.8,0.2,1.7,0.2,2.5l0.1,2.5l0.4,10.2c0.2,3.4,0.1,6.8,0.1,10.2v10.2l0.5-10.2c0.2-3.4,0.4-6.8,0.4-10.2l0.1-10.2
						v-2.6c0-0.9-0.1-1.7-0.1-2.6l-0.2-5.1c-0.4-13.6-1.8-27.2-3.8-40.8l-1.6-10.1l-2-10.1c-1.1-5.2-2.3-10.4-3.6-15.5
						c9.9,16.6,20,34.2,20,34.2l-27.4-88.5l22,31.4c0,0,1.5-12-1.7-28.2c0.7,1.4,1.4,2.7,2.1,4.1l2.1,4.6l1.9,4.7
						c0.3,0.8,0.7,1.6,1,2.4l0.8,2.4c0.6,1.6,1.2,3.2,1.7,4.8c0.9,3.2,2,6.5,2.8,9.8c1.8,6.6,2.8,13.3,3.7,20.1
						c-0.3-6.8-0.6-13.7-1.8-20.5c-0.4-3.4-1.2-6.8-1.9-10.2c-0.4-1.7-0.8-3.4-1.2-5l-0.6-2.5c-0.2-0.8-0.5-1.7-0.7-2.5l-1.5-5
						l-1.7-4.9c-0.5-1.7-1.2-3.3-1.9-4.9c-0.7-1.6-1.3-3.2-2-4.8l-2.2-4.8c-0.7-1.6-1.5-3.1-2.3-4.7c-0.8-1.6-1.6-3.1-2.4-4.6
						c-0.8-1.5-1.7-3.1-2.6-4.6c-3.5-6.1-7.4-11.9-11.5-17.5c-2.6-3.5-5.3-6.9-8-10.2c-8-11-16.2-19.9-23.9-27.4
						c-0.4-5-0.9-10.1-1.6-15.2c15.2,7.5,27,14.4,37,21.2c0.3,0.7,0.6,1.4,0.8,2.2l1.4,4.3c0.2,0.7,0.5,1.4,0.7,2.2l0.6,2.2
						c0.4,1.5,0.8,2.9,1.2,4.4l1,4.4l0.5,2.2l0.4,2.2l0.8,4.5c0.1,0.8,0.2,1.5,0.3,2.3l0.3,2.3l0.5,4.6v-4.6v-2.3
						c0-0.8,0-1.5-0.1-2.3l-0.3-4.6l-0.1-2.3l-0.3-2.3l-0.5-4.6c-0.2-1.5-0.5-3-0.7-4.6l-0.4-2.3c-0.1-0.8-0.3-1.5-0.5-2.3l-0.4-2
						c1.8,1.3,3.5,2.5,5.1,3.8c1.2,1,2.4,2.1,3.7,3.1c0.8,0.7,1.6,1.3,2.4,2c0.5,0.8,1.1,1.5,1.6,2.3c6,8.8,11.5,18,16.7,27.3
						c5.1,9.4,9.8,19,14.1,28.8s8.1,19.8,11.5,30c1.7,5.1,3.3,10.2,4.7,15.4s2.8,10.4,3.9,15.6C519.9,481,518.7,475.8,517.4,470.6z
						 M420.5,299.7c-3.4-1.9-6.9-3.6-10.5-5.4c2.7,0.8,5.1,1.6,7.4,2.2C418.5,297.6,419.5,298.7,420.5,299.7z"/>
				</defs>
				<clipPath id="SVGID_5_">
					<use xlink:href="#SVGID_4_"  style="overflow:visible;"/>
				</clipPath>
				<path class="st1" d="M475.2,137c-29-52.2-62.7-95.6-97.4-125.5C338.5-22.4,298-39.6,257.5-39.6s-80.9,17.2-120.3,51.1
					C102.7,41.5,69,84.9,40,137c-54.4,97.7-89.5,220.9-89.5,313.8c0,85.4,29.6,142.4,90.6,174.1c26,13.5,57.9,22.8,97.6,28.2
					c32.1,4.4,69.9,6.5,118.9,6.5c74,0,157.6-4.1,216.5-34.7c61-31.7,90.6-88.7,90.6-174.1C564.7,357.9,529.6,234.8,475.2,137z
					 M443.2,426.2c5.5,17.5,11,36.5,13.5,47.1c-11.1-11.8-33.5-34.3-44.3-35.6l-3.5-0.4l0.5,3.5c0.5,4,3,12.3,5.9,21.8
					c2.6,8.5,5.5,18.2,7.4,26.2c2.9,12.1,2,14.6,1.8,14.9c-30.8,47.1-80.3,67.5-108,75.5c-2.2-3.5-7-15.9-10.6-26.7l-5.3-15.7v16.5
					c0,12.1-0.6,26.3-1.5,30.1c-1.2,0.2-2.3,0.5-3.5,0.7c-4.5,0.8-9,1.5-13.4,2.1c-1.9-1.9-6-10.6-8.8-18l-3-7.9l-2.2,8.1
					c-2.1,7.8-5.4,17-7.1,19.1c-3.7,0-7.5-0.1-11.2-0.3c-1.3-4.3-2.5-21-2.9-35.2l-0.5-16.8l-4.8,16.1c-4.2,14-9.8,30.1-12.1,33.8
					c-27.4-4.2-52.7-13.6-75.1-28c-11.1-7.1-16.6-21-13.7-34.6c0.1-0.2,0.1-0.4,0.1-0.4l2.2-9.2l-6.8,6.7
					c-0.3,0.3-7.2,7.2-11.7,14.9c-7.5-7.3-14.3-15.2-20.2-23.6c-0.2-0.3-1.8-3.8,2.9-25.4c2.5-11.4,5.5-22.2,5.5-22.3l3.9-13.8
					l-11.3,14.8l0.9-6.1l-4.6,2.1c-7.1,3.3-15.8,6.5-18.9,6.8c-5.7-19.3-4.8-57,0.1-75.1c3.7-13.9,22.6-52.9,22.8-53.3l2.3-4.7
					l-5.1,0.8c-0.6,0.1-11.2,1.8-22.2,14.3c16.9-71.2,49.7-148.1,89.1-208.5c2.2,1,10.7,9.3,17.2,15.9c2.6,2.6,6.9,0.4,6.5-3.2
					c-1.5-11.4-3.4-27.8-2.6-30.1c22.5-22.5,45.1-32,70.4-33.1c14.9-0.7,32.7,2.3,43.6,10c-1,11.8,0.5,31.2,1.6,31.2
					c2.6-0.2,12.8-20.6,14.1-22.2c27.8,27.4,50.8,61.5,71.7,101.1c23.8,45.1,41.3,91,50.7,133.1l-31-9.2l4.2,6.3
					c7.6,11.5,28,42.7,30.5,48.4c0.9,2.1,2,4.4,3.2,6.9c5.1,10.9,12,25.4,13.2,41.8c-5.8-5.6-14.1-13-15.4-14.1l-7.4-6.5
					L443.2,426.2z"/>
			</g>
		</g>
		<g>
			<g>
				<defs>
					<path id="SVGID_6_" d="M517.4,470.6c-1.3-5.2-2.7-10.4-4.3-15.5c-3.1-10.3-6.7-20.5-10.7-30.4c-4-10-8.4-19.8-13.3-29.4
						c-3.5-6.9-7.2-13.7-11.2-20.3c2.7,2.2,5.4,4.3,8.1,6.4c-3.2-2.9-6.4-5.9-9.6-8.9c-1.1-1.8-2.2-3.6-3.3-5.3
						c-4.2-6.6-8.7-13.1-13.4-19.4c-3.2-6.1-6.7-12.8-10.1-18.7c1,0.8,2,1.6,3,2.5c6.6,5.5,13,11.4,19.1,17.6
						c6.1,6.2,11.9,12.7,17.2,19.6c-4.8-7.3-10.1-14.2-15.7-20.9c-5.6-6.7-11.6-13.1-17.9-19.2c-3.1-3.1-6.4-6-9.7-8.9
						c-1.3-1.1-2.6-2.2-4-3.3c-0.8-1-1.5-1.9-2.1-2.6c-5.8-6.1-11.8-10.2-18.1-13.6c-0.9-1.1-1.7-2.1-2.6-3.2
						c16.3,4.8,23.4,6.2,23.4,6.2s-5.8-6.8-9.9-15.3c-1-2.8-2.1-5.7-3.2-8.6l0,0l0,0c-4.2-11.2-8.8-22.3-13.6-33.4
						c-0.3-0.6,3.6-0.1,7.2,0.5c2.1,1.5,4.1,3.1,6.1,4.7c2.8,2.2,5.4,4.7,8.1,7.1c1.3,1.3,2.5,2.6,3.8,3.9l1.9,1.9l1.8,2l3.6,4.1
						l3.4,4.3l1.7,2.1c0.6,0.7,1.1,1.5,1.6,2.2l3.2,4.4c8.3,11.9,15.2,24.9,21.2,38.2c-5.4-13.6-11.7-26.9-19.5-39.3l-3-4.6
						c-0.5-0.8-1-1.6-1.5-2.3l-1.6-2.2l-3.2-4.5l-3.5-4.3l-1.7-2.2l-1.9-2.1c-1.2-1.4-2.5-2.8-3.7-4.1c-2.6-2.6-5.2-5.3-8-7.7
						c-4.1-3.7-8.5-7.2-13.1-10.3c-3.6-3.6-7.4-7.5-10-10.6c7.8,2.2,15.6,4.1,23.6,5.4c8.7,1.4,17.5,2.1,26.2,1.4
						c-8.7,0-17.4-1.3-25.8-3.3c-8.4-2-16.7-4.7-24.8-7.8c-0.9-0.4-1.8-0.7-2.7-1.1c-6.3-13.4-12.9-26.6-19.7-39.3
						c0.4-0.4,0.7-0.9,1.1-1.3c4.4-5,9-9.9,13.7-14.5c4.7-4.7,9.7-9.2,14.8-13.5c2.6-2.1,5.1-4.3,7.8-6.3c2.6-2.1,5.3-4,8-6
						c10.9-7.8,22.4-14.7,34.5-20.6c-12.3,5.3-24.3,11.7-35.6,19c-2.8,1.9-5.6,3.7-8.4,5.7c-2.8,1.9-5.5,4-8.2,6
						c-5.3,4.1-10.6,8.4-15.6,12.9s-9.9,9.2-14.6,14.1c-8.3-15.2-16.8-29.8-25.4-43.4c3-5.3,5.9-10.5,8.8-15.8
						c5.5-10.1,10.8-20.3,15.3-30.9c-4.9,10.4-10.7,20.3-16.5,30.2c-2.9,4.9-5.9,9.7-8.8,14.6c-1.6-2.4-3.1-4.9-4.7-7.2
						c-2-3-0.6-8.7,2.6-9.7l-10.8-2.5c-1.5-2.1-2.7-4.3-3.7-6.7c0.8-1.5,1.7-3.1,2.5-4.6c4.2-7.5,8.7-14.8,13.6-22
						c4.9-7.1,10-14.1,15.5-20.8c-11.6,7.4-32.4,26.4-39.8,37.7c-0.5-4.1,9-26.9,9-26.9S329,87.7,324,97.5c-5,9.9-15.1,30.1-21.5,51
						c-1.2-0.6-2.4-1.2-3.7-1.7c13.8-57.1,28-94.2,34.2-110.4c-12.2,22.3-19.5,37.2-25.9,47.2c0,0-14.2-7.6-29.3-10.4
						c0-0.5-1.9-16.3,5.6-54.3c-8.3,25.7-12.5,48.6-13,53.2c0,0-10.6-0.1-13.1,0.2c-2.7-6-5.4-14-5.4-14s0.9,11.4,0.3,15.2
						c-11.2,3.1-27.4,9.6-36.3,15.1c-3-7.3-11.8-29.1-14.9-36.3l-3.7-8.5l-3.9-8.4c-1.3-2.8-2.7-5.6-4.1-8.3
						c-0.7-1.4-1.4-2.7-2.2-4.1c0,0,1.3,2.8,1.9,4.2c1.2,2.8,2.5,5.6,3.8,8.5l3.6,8.5l3.4,8.6c3,7.7,10.9,29.5,13.7,37.2
						c-6.9,5-17.4,13.6-24.1,21c-7.6-13.2-14.1-26.3-24.1-49.3c3.7,11.2,7.2,22.4,10.7,33.6c0,0,0,0-0.1,0c0.1,0.3,0.2,0.6,0.3,0.8
						c1.6,5.4,3.3,10.7,4.9,16.1l7.6,25.3l7.4,25.3v0.2c0.4,1.4,4.2,13.2,4.2,13.2s-46.3-75.8-50.5-83.3c3.4,7.3,13.4,33,16.5,40.5
						c0,0-2.1,3.1-10.4,16.1l0,0c-2.6,4.4-5.3,9-7.9,13.6c-2.3-1.1-4.5-2.2-6.8-3.2l-3.8-1.7l-3.9-1.6c-10.4-4.2-21-7.6-31.8-10.3
						c10.7,3.2,21.1,7,31.3,11.6l3.8,1.7l3.7,1.8c2.2,1.1,4.4,2.2,6.6,3.4c-11.3,20.2-22.3,41.8-32.3,63.9c-0.3,0.7-1.5,1.9-3,3.2
						c-4.3,3-8.8,5.8-13.4,8.4c-1,0.6-1.9,1.1-2.9,1.6l-2.9,1.5c-2,0.9-4,2-6,2.8c-4,1.9-8.2,3.4-12.4,4.9c4.3-1.2,8.6-2.4,12.8-4
						c2.1-0.7,4.2-1.6,6.3-2.4l3.1-1.3c1-0.4,2.1-0.9,3.1-1.4c2.6-1.2,5.1-2.5,7.6-3.8c1.4,0.7,2.9,1.7,2.5,2.9
						c-2.8,6.4-5.4,12.8-8,19.3c-4.6,2.8-9.1,5.8-13.5,8.9c-5.6,3.9-10.9,8-16.2,12.2c-2.6,2.2-5.2,4.3-7.7,6.6
						c-2.6,2.2-5,4.5-7.5,6.9C47,304.4,38,314.5,30,325.3c8.5-10.4,17.9-20,28-28.8c2.6-2.2,5.1-4.4,7.7-6.4
						c2.6-2.1,5.3-4.1,7.9-6.1c5.4-3.9,10.9-7.8,16.5-11.3c2.8-1.8,5.7-3.5,8.6-5.2c-6,15.2-11.4,30.5-16.1,45.6
						c-2.9,7.8-5.6,16.5-8.2,25c-1.7,1.1-3.4,2.1-5.2,3c-3.8,2.1-7.9,3.9-12,5.3c-4.2,1.4-8.5,2.3-12.9,2.5
						c4.4,0.1,8.9-0.5,13.2-1.6s8.5-2.6,12.6-4.5c1.1-0.5,2.2-1.1,3.4-1.6c-3.7,12.6-6.8,24.4-8.7,31.9
						c-8.2,13.1-15.3,26.8-21.5,40.9c-4,9.1-7.6,18.5-10.7,27.9c-3,9.5-5.7,19.1-7.4,28.9c2-9.7,5-19.2,8.4-28.6
						c3.4-9.3,7.2-18.5,11.5-27.4c8.6-17.9,18.7-35,30.4-50.9l2.2-3l1.1-1.5l1.1-1.5l4.6-5.8c1.5-1.9,3.2-3.8,4.7-5.7l2.4-2.8
						l2.5-2.8c0.5-0.6,1-1.2,1.5-1.7c6.1-5.3,13.1-10.5,21.1-15C83.5,366,78.6,377.7,64,415.4c-11.6,28.6-21.9,82.2-21.9,82.2
						s3.9-8.7,9.5-19.9c-0.6,2.8-1.1,5.5-1.7,8.3c-1.8,9.5-3.4,19.1-4.8,28.7c-2.7,19.2-4.7,38.4-5.6,57.8
						c1.5-19.3,4.2-38.4,7.5-57.5c1.7-9.5,3.6-19,5.7-28.4c1.7-7.3,3.4-14.5,5.4-21.7c2.4-4.5,4.9-9.1,7.4-13.4
						c-0.1,11.1,4.8,29.5,8.2,41c-0.1,2.3-0.3,4.5-0.4,6.8c-0.1,1.6-0.1,3.2-0.2,4.8l-0.1,4.8l-0.1,4.8c0,1.6,0,3.2,0,4.8
						c-0.1,12.8,0.5,25.5,1.5,38.2c1.1,12.7,2.7,25.3,5.2,37.8c-1.9-12.6-2.8-25.2-3.3-37.9c-0.4-12.7-0.3-25.3,0.4-38
						c0.1-1.6,0.1-3.2,0.3-4.7l0.4-4.7l0.4-4.7c0.1-1.6,0.2-3.1,0.4-4.7l0,0c3.6-7.9,8.2-15.1,13.9-21.4c2.7-3.1,5.8-6.4,9-9.8
						c-1.4,9.6-1.9,16.5-1.9,16.5s13.9-29.4,18.2-33.5c-10.3,31.7-14,39-21.1,62.9s-3.1,42.1-3.1,42.1s4.3-14.9,10.7-24.3
						c-1.7,9.5-2.8,19.1-3.4,28.7c-0.3,6.9-0.3,13.7,0,20.6c0.1,1.7,0.2,3.4,0.3,5.1l0.2,2.6l0.3,2.6c0.2,1.7,0.3,3.4,0.6,5.1
						l0.7,5.1c0.2,1.7,0.6,3.4,0.9,5c0.3,1.7,0.6,3.4,1,5c0.8,3.3,1.5,6.7,2.4,9.9c1.7,6.6,4,13,6.5,19.4c-2.1-6.5-4.1-13-5.5-19.6
						c-0.8-3.3-1.3-6.6-2-10c-0.3-1.7-0.5-3.4-0.7-5c-0.2-1.7-0.5-3.3-0.6-5l-0.5-5c-0.1-1.7-0.2-3.4-0.3-5.1l-0.1-2.5l-0.1-2.5
						c0-1.7-0.1-3.4-0.1-5.1c0-6.8,0.4-13.5,1-20.2c1.1-10.5,2.9-21,5.4-31.2c1.8,1.8,3.9,3.9,6.2,6c0.1,1.5,0.2,2.9,0.3,4.4
						c0.8,11.4,2.2,22.7,4.7,33.8c-1.9-11.2-2.6-22.5-2.8-33.9c0-0.7,0-1.5,0-2.2c0.9,0.9,1.9,1.7,2.8,2.6
						c1.5,1.4-0.2,13.4,2.6,26.3c-0.1-15.6,13.2-41.4,13.2-41.4s-2.1,11.8-2,26.9c0.8,21.8,9,51.3,9,51.3s0.9-30,5.3-41.8
						c23,15.6,54.5,26.8,85.9,31.1c2.6,0.4,5.2-21.6,7.8-21.3c1.7,0.2-2,45.9-2,45.9s9.3-17.5,11.5-23c3.3,0.2,6.5,0.3,9.7,0.3
						c1.9,0,3.7,0,5.5-0.1c1.6,0,3.4-22.4,3.4-22.4l2.1,6.5c0.8,3.6,1.6,7.2,2.3,10.8c0.9,4.1,1.4,8.3,2.1,12.5l0.7,6.3
						c0.1,1.1,0.2,2.1,0.3,3.2l0.2,3.2c0.1,2.1,0.3,4.2,0.4,6.4l0.1,6.4c0,1.1,0.1,2.1,0.1,3.2l-0.1,3.2l-0.2,6.4l1.2-6.3l0.6-3.2
						c0.2-1.1,0.3-2.1,0.4-3.2l0.8-6.4c0.2-2.1,0.4-4.3,0.6-6.5l0.3-3.2c0-0.7,0.1-1.5,0.1-2.2c0-0.2,3.8-16.1,6.3-16.5
						c3.2-0.4,6.3-1,9.5-1.6c2-0.4,6,6.2,6,6.2l-0.7-38.5l12.2,51.2c0,0,1.1-23.3,2.3-23.6c24.8-7.3,47.6-19.1,67.4-33.7
						c3.2-2.3,16.1,37.2,16.1,37.2s5.3-21.8,2-52.1c2.9-2.7,5.8-5.5,8.6-8.3c0.4-0.4,0.9-0.9,1.3-1.4c0.1,0.3,0.3,0.7,0.4,1l0.9,2.2
						l0.8,2.3l1.6,4.6l1.4,4.6l0.7,2.3c0.2,0.8,0.4,1.6,0.6,2.3l1.2,4.7c0.8,3.1,1.4,6.3,2.1,9.5c-0.1-3.2-0.1-6.5-0.2-9.8l-0.3-4.9
						c-0.1-0.8-0.1-1.6-0.1-2.5l-0.2-2.4l-0.5-4.9l-0.6-4.9l-0.3-2.5l-0.4-2.4c-0.3-1.6-0.5-3.3-0.8-4.9c-0.1-0.3-0.1-0.6-0.2-0.9
						c0.2-0.3,0.5-0.5,0.7-0.8c1.1-1.2,5.2,2.5,9,6.4c0.1,0.3,0.1,0.5,0.2,0.8c1.7,8.7,3.2,17.5,4.5,26.4l0.9,6.6
						c0.3,2.2,0.6,4.4,0.8,6.7l0.7,6.7l0.6,6.7c0.4,4.5,0.7,8.9,1,13.4s0.4,9,0.7,13.4c0.1-4.5,0.3-9,0.3-13.5s0.1-9,0-13.5
						l-0.1-6.7l-0.2-6.7c-0.1-2.2-0.2-4.5-0.3-6.7l-0.4-6.7c-0.5-7.1-1.1-14.3-1.9-21.4c-0.4-4.5-1.5-15.5-3.8-26.8
						c-0.3-1.4-0.6-2.8-1-4.2c-0.1-0.5-0.2-1-0.3-1.5c0-0.1,0-0.2-0.1-0.3c0-0.1-0.1-0.2-0.2-0.4c-7-26.3-21.8-59.6-25.3-67.6
						l0.2,0.3c0.4,0.6,0.7,1.2,1.1,1.8l2.2,3.6c5.9,9.6,11.1,19.6,15.9,29.8l3.5,7.7l3.2,7.8c2,5.3,4,10.6,5.8,16
						c3.5,10.8,6.5,21.7,8.4,32.9c-1.2-11.3-3.6-22.5-6.5-33.5c-1.4-5.5-3.1-11-4.9-16.4l-2.8-8.1l-3.1-8c-3.7-9.1-7.6-18.2-12.2-27
						c8,6.3,18.6,15.3,26.3,24.2c1.8,4.8,3.5,9.7,5,14.6c2.1,6.4,3.9,12.9,5.6,19.5l2.4,9.9l2.1,9.9c2.6,13.3,4.6,26.7,5.7,40.2
						l0.4,5.1c0.1,0.8,0.2,1.7,0.2,2.5l0.1,2.5l0.4,10.2c0.2,3.4,0.1,6.8,0.1,10.2v10.2l0.5-10.2c0.2-3.4,0.4-6.8,0.4-10.2l0.1-10.2
						v-2.6c0-0.9-0.1-1.7-0.1-2.6l-0.2-5.1c-0.4-13.6-1.8-27.2-3.8-40.8l-1.6-10.1l-2-10.1c-1.1-5.2-2.3-10.4-3.6-15.5
						c9.9,16.6,20,34.2,20,34.2l-27.4-88.5l22,31.4c0,0,1.5-12-1.7-28.2c0.7,1.4,1.4,2.7,2.1,4.1l2.1,4.6l1.9,4.7
						c0.3,0.8,0.7,1.6,1,2.4l0.8,2.4c0.6,1.6,1.2,3.2,1.7,4.8c0.9,3.2,2,6.5,2.8,9.8c1.8,6.6,2.8,13.3,3.7,20.1
						c-0.3-6.8-0.6-13.7-1.8-20.5c-0.4-3.4-1.2-6.8-1.9-10.2c-0.4-1.7-0.8-3.4-1.2-5l-0.6-2.5c-0.2-0.8-0.5-1.7-0.7-2.5l-1.5-5
						l-1.7-4.9c-0.5-1.7-1.2-3.3-1.9-4.9c-0.7-1.6-1.3-3.2-2-4.8l-2.2-4.8c-0.7-1.6-1.5-3.1-2.3-4.7c-0.8-1.6-1.6-3.1-2.4-4.6
						c-0.8-1.5-1.7-3.1-2.6-4.6c-3.5-6.1-7.4-11.9-11.5-17.5c-2.6-3.5-5.3-6.9-8-10.2c-8-11-16.2-19.9-23.9-27.4
						c-0.4-5-0.9-10.1-1.6-15.2c15.2,7.5,27,14.4,37,21.2c0.3,0.7,0.6,1.4,0.8,2.2l1.4,4.3c0.2,0.7,0.5,1.4,0.7,2.2l0.6,2.2
						c0.4,1.5,0.8,2.9,1.2,4.4l1,4.4l0.5,2.2l0.4,2.2l0.8,4.5c0.1,0.8,0.2,1.5,0.3,2.3l0.3,2.3l0.5,4.6v-4.6v-2.3
						c0-0.8,0-1.5-0.1-2.3l-0.3-4.6l-0.1-2.3l-0.3-2.3l-0.5-4.6c-0.2-1.5-0.5-3-0.7-4.6l-0.4-2.3c-0.1-0.8-0.3-1.5-0.5-2.3l-0.4-2
						c1.8,1.3,3.5,2.5,5.1,3.8c1.2,1,2.4,2.1,3.7,3.1c0.8,0.7,1.6,1.3,2.4,2c0.5,0.8,1.1,1.5,1.6,2.3c6,8.8,11.5,18,16.7,27.3
						c5.1,9.4,9.8,19,14.1,28.8s8.1,19.8,11.5,30c1.7,5.1,3.3,10.2,4.7,15.4s2.8,10.4,3.9,15.6C519.9,481,518.7,475.8,517.4,470.6z
						 M420.5,299.7c-3.4-1.9-6.9-3.6-10.5-5.4c2.7,0.8,5.1,1.6,7.4,2.2C418.5,297.6,419.5,298.7,420.5,299.7z"/>
				</defs>
				<clipPath id="SVGID_7_">
					<use xlink:href="#SVGID_6_"  style="overflow:visible;"/>
				</clipPath>
				<path class="st2" d="M459.5,282l-3-4.6c-0.5-0.8-1-1.6-1.5-2.3l-1.6-2.2l-3.2-4.5l-3.5-4.3l-1.7-2.2l-1.9-2.1
					c-1.2-1.4-2.5-2.8-3.7-4.1c-2.6-2.6-5.2-5.3-8-7.7c-11-9.9-24-17.9-38.2-22.9l-1.3-0.5l-1.3-0.4l-2.7-0.8
					c-1.8-0.5-3.6-1-5.5-1.5c-3-0.6-5.9-1.2-8.9-1.7c-2.6-4.2-5.3-8.3-8.1-12.3c2.6-3.8,5.3-7.6,8.1-11.3c4-5.3,8.2-10.5,12.6-15.5
					c4.4-5,9-9.9,13.7-14.5c4.7-4.7,9.7-9.2,14.8-13.5c2.6-2.1,5.1-4.3,7.8-6.3c2.6-2.1,5.3-4,8-6c10.9-7.8,22.4-14.7,34.5-20.6
					c-12.3,5.3-24.3,11.7-35.6,19c-2.8,1.9-5.6,3.7-8.4,5.7c-2.8,1.9-5.5,4-8.2,6c-5.3,4.1-10.6,8.4-15.6,12.9s-9.9,9.2-14.6,14.1
					c-4.7,4.9-9.2,9.9-13.6,15.1c-2.6,3.1-5,6.2-7.5,9.4c-1.7-2.3-3.4-4.6-5.2-6.9c-1.2-1.5,1-6.7-0.1-8.1c-1.2-1.5-5.8,0.8-7.1-0.7
					c-4.5-5.2-9.2-10.2-13.9-14.7c4.7-7.8,9.3-15.5,13.8-23.4c5.8-9.9,11.5-20,16.9-30.1c5.5-10.1,10.8-20.3,15.3-30.9
					c-4.9,10.4-10.7,20.3-16.5,30.2c-5.9,9.9-11.9,19.6-18.1,29.3c-4.7,7.4-9.5,14.8-14.3,22.2c-5.7-5.2-11.6-9.9-17.5-13.9
					c1.1-3.5,2.2-7,3.5-10.4c2-5.4,4.3-10.8,7.1-15.9c-3.2,4.9-5.9,10.1-8.3,15.3c-1.5,3.2-2.8,6.4-4.1,9.7
					c-12.9-8.3-26.1-13.4-39-14.3c-0.8-12.2-6.4-49.8-7-53.9c2.3,19.2,2.4,36.1,2.5,53.8c-9.7,0.1-20.1,3.5-30.6,9.6
					c-3.5-9.5-6.9-19-10.5-28.4c-4.4-11.6-8.8-23.1-13.4-34.6s-9.3-22.9-14.1-34.3l-3.7-8.5l-3.9-8.4c-1.3-2.8-2.7-5.6-4.1-8.3
					c-0.7-1.4-1.4-2.7-2.2-4.1l-2.2-4.1l2.1,4.2c0.7,1.4,1.4,2.7,2,4.2c1.2,2.8,2.5,5.6,3.8,8.5l3.6,8.5l3.4,8.6
					c4.5,11.5,8.7,23.1,12.8,34.7c4.1,11.6,8.1,23.3,12.1,35c3.3,9.9,6.6,19.9,9.8,29.8c-4.5,2.9-9.1,6.3-13.6,10
					c-0.8,0.6-2.6-0.4-4.3-1.4c-2.7-3.7-5.5-7.4-8.3-11c-3.2-4.1-6.4-8.1-9.8-12c2.6,4.5,4.9,9.1,7.1,13.7c2.2,4.5,4.3,9,6.4,13.6
					c-0.1,2.5-0.1,5-1.1,6c-6.6,6.3-13.1,13.4-19.4,21.1c-0.3-0.2-0.5-0.5-0.8-0.7c-8.3-7.6-17.5-14.3-27.1-20.1
					c-4.8-2.9-9.8-5.5-14.8-8.1c-2.5-1.2-5-2.5-7.6-3.5l-3.8-1.7l-3.9-1.6c-10.4-4.2-21-7.6-31.8-10.3c10.7,3.2,21.1,7,31.3,11.6
					l3.8,1.7l3.7,1.8c2.5,1.2,4.9,2.5,7.4,3.8c4.8,2.7,9.6,5.5,14.2,8.6c9.2,6.1,17.9,13,25.7,20.7c0.3,0.3,0.6,0.6,1,1
					c-11,13.8-21.4,29.2-30.4,45.2c-1,1.8-4.7,3.3-7.5,4.3c-1.3,0.4-1.5,2.2-0.4,3c0.7,0.6,1.5,1.2,2,1.9c-0.4,0.4-0.7,0.8-1.1,1.3
					l-4.6,5.3l-4.4,5.4c-3,3.6-5.8,7.3-8.7,11c-2.9,3.7-5.6,7.5-8.4,11.2l-8.1,11.4l8.8-10.8c3-3.5,6-7.1,9.1-10.6
					c3.1-3.4,6.2-7,9.4-10.3l4.8-5.1l1.3-1.3c-14.9,30.9-26.1,64.4-31.2,95.9c-1.4,1.9-2.7,3.9-4.1,5.9c-5.1,7.4-10,14.9-14.5,22.7
					s-8.8,15.7-12,24.1c3.6-8.2,8.3-15.9,13.1-23.4c4.9-7.5,10.2-14.7,15.6-21.8c0.3-0.4,0.6-0.8,0.9-1.2
					c-1.4,10.1-2.1,19.9-2.1,29.3c0,4.5-7.8,30.2-11.3,41.2c-0.4,1.4,1.1,2.5,2.1,1.6l12.3-11.3l0.2,2.2c0.2,1.8,2.2,2.4,3.2,0.9
					l0,0c2.1-3.1,6.7-0.9,5.9,2.9l-3,14.9l-1.4,5.3c-0.7,2.8-1.5,5.6-2,8.4l-1.7,8.4l-0.4,2.1c-0.1,0.7-0.2,1.4-0.3,2.1l-0.7,4.2
					c-1.9,11.3-2.9,22.7-3.5,34.1l-0.3,8.6v8.6c0.1,5.7,0.3,11.4,0.7,17.1c0.8,11.4,2.2,22.7,4.7,33.8c-1.9-11.2-2.6-22.5-2.8-33.9
					c-0.1-5.7,0-11.3,0.3-17l0.5-8.5l0.8-8.4c1.2-11.2,2.8-22.4,5.4-33.3l0.9-4.1c0.2-0.7,0.3-1.4,0.5-2.1l0.5-2l2.2-8.1
					c0.1-0.4,0.2-0.8,0.3-1.2c1.2-2,2.2-3.2,2.5-2.6c27.7,46.2,87.3,56,137.9,56c41.1,0,86.1-15.5,115.5-50c0.3-0.3,1,0.4,1.8,1.7
					l12.4,67.1l-6.8-57c0.2,0.4,0.4,0.8,0.6,1.1c0.5,0.9,1.8,0.4,1.6-0.6c-1.1-7.7-2.8-21-1.9-22.4c2.9-4.2,5.7-8.7,8.1-13.5
					c0.5-0.9-1.3-6-3.5-11.6c-0.4-1-0.4-2,0-2.9c0.7,1,1.5,2,2.1,3.1l4.7,7l1.2,1.7c0.4,0.6,0.7,1.2,1.1,1.8l2.2,3.6
					c5.9,9.6,11.1,19.6,15.9,29.8l3.5,7.7l3.2,7.8c2,5.3,4,10.6,5.8,16c3.5,10.8,6.5,21.7,8.4,32.9c-1.2-11.3-3.6-22.5-6.5-33.5
					c-1.4-5.5-3.1-11-4.9-16.4l-2.8-8.1l-3.1-8c-4.3-10.6-8.9-21.1-14.4-31.2l-2-3.8c-0.3-0.6-0.7-1.3-1-1.9l-1.1-1.9l-3.5-5.9
					c0.5,0.2,0.8,0.2,0.9-0.1c2.4-6.2,4.4-12.7,6-19.6c2.1,3.6,4.2,7.2,6.3,10.8c2.7,4.7,5.4,9.5,8,14.3s5.2,9.6,7.4,14.6
					c-1.8-5.2-4-10.2-6.2-15.2s-4.5-10-6.8-15c-2.4-5.2-4.9-10.5-7.4-15.7c1.9-9.9,2.8-20.6,2.8-31.9c0-14.5-1.6-29.5-4.6-44.4
					c-0.3-1.5,6.2-0.1,5.9-1.6c-0.6-2.7-8-8.3-8.7-11c-2-8.1-4.4-16.1-7.1-24.1c3.1,2.8,6.2,5.7,9.2,8.6c4,3.8,7.9,7.6,11.6,11.6
					c-3.3-4.3-6.9-8.5-10.6-12.6c-3.6-4.1-7.3-8.1-11.1-12.1c-0.4-0.4-0.8-0.8-1.1-1.2c-6.3-17.2-14.1-33.9-23-49.3
					c1.1,0.2,2.2,0.3,3.2,0.5c1.7,0.4,3.5,0.7,5.2,1.1l2.6,0.7l1.3,0.3l1.3,0.4c13.6,4.1,26.4,11.2,37.5,20.3
					c2.8,2.2,5.4,4.7,8.1,7.1c1.3,1.3,2.5,2.6,3.8,3.9l1.9,1.9l1.8,2l3.6,4.1l3.4,4.3l1.7,2.1c0.6,0.7,1.1,1.5,1.6,2.2l3.2,4.4
					c8.3,11.9,15.2,24.9,21.2,38.2C473.7,307.8,467.4,294.5,459.5,282z"/>
			</g>
		</g>
		<g>
			<g>
				<defs>
					<path id="SVGID_8_" d="M517.4,470.6c-1.3-5.2-2.7-10.4-4.3-15.5c-3.1-10.3-6.7-20.5-10.7-30.4c-4-10-8.4-19.8-13.3-29.4
						c-3.5-6.9-7.2-13.7-11.2-20.3c2.7,2.2,5.4,4.3,8.1,6.4c-3.2-2.9-6.4-5.9-9.6-8.9c-1.1-1.8-2.2-3.6-3.3-5.3
						c-4.2-6.6-8.7-13.1-13.4-19.4c-3.2-6.1-6.7-12.8-10.1-18.7c1,0.8,2,1.6,3,2.5c6.6,5.5,13,11.4,19.1,17.6
						c6.1,6.2,11.9,12.7,17.2,19.6c-4.8-7.3-10.1-14.2-15.7-20.9c-5.6-6.7-11.6-13.1-17.9-19.2c-3.1-3.1-6.4-6-9.7-8.9
						c-1.3-1.1-2.6-2.2-4-3.3c-0.8-1-1.5-1.9-2.1-2.6c-5.8-6.1-11.8-10.2-18.1-13.6c-0.9-1.1-1.7-2.1-2.6-3.2
						c16.3,4.8,23.4,6.2,23.4,6.2s-5.8-6.8-9.9-15.3c-1-2.8-2.1-5.7-3.2-8.6l0,0l0,0c-4.2-11.2-8.8-22.3-13.6-33.4
						c-0.3-0.6,3.6-0.1,7.2,0.5c2.1,1.5,4.1,3.1,6.1,4.7c2.8,2.2,5.4,4.7,8.1,7.1c1.3,1.3,2.5,2.6,3.8,3.9l1.9,1.9l1.8,2l3.6,4.1
						l3.4,4.3l1.7,2.1c0.6,0.7,1.1,1.5,1.6,2.2l3.2,4.4c8.3,11.9,15.2,24.9,21.2,38.2c-5.4-13.6-11.7-26.9-19.5-39.3l-3-4.6
						c-0.5-0.8-1-1.6-1.5-2.3l-1.6-2.2l-3.2-4.5l-3.5-4.3l-1.7-2.2l-1.9-2.1c-1.2-1.4-2.5-2.8-3.7-4.1c-2.6-2.6-5.2-5.3-8-7.7
						c-4.1-3.7-8.5-7.2-13.1-10.3c-3.6-3.6-7.4-7.5-10-10.6c7.8,2.2,15.6,4.1,23.6,5.4c8.7,1.4,17.5,2.1,26.2,1.4
						c-8.7,0-17.4-1.3-25.8-3.3c-8.4-2-16.7-4.7-24.8-7.8c-0.9-0.4-1.8-0.7-2.7-1.1c-6.3-13.4-12.9-26.6-19.7-39.3
						c0.4-0.4,0.7-0.9,1.1-1.3c4.4-5,9-9.9,13.7-14.5c4.7-4.7,9.7-9.2,14.8-13.5c2.6-2.1,5.1-4.3,7.8-6.3c2.6-2.1,5.3-4,8-6
						c10.9-7.8,22.4-14.7,34.5-20.6c-12.3,5.3-24.3,11.7-35.6,19c-2.8,1.9-5.6,3.7-8.4,5.7c-2.8,1.9-5.5,4-8.2,6
						c-5.3,4.1-10.6,8.4-15.6,12.9s-9.9,9.2-14.6,14.1c-8.3-15.2-16.8-29.8-25.4-43.4c3-5.3,5.9-10.5,8.8-15.8
						c5.5-10.1,10.8-20.3,15.3-30.9c-4.9,10.4-10.7,20.3-16.5,30.2c-2.9,4.9-5.9,9.7-8.8,14.6c-1.6-2.4-3.1-4.9-4.7-7.2
						c-2-3-0.6-8.7,2.6-9.7l-10.8-2.5c-1.5-2.1-2.7-4.3-3.7-6.7c0.8-1.5,1.7-3.1,2.5-4.6c4.2-7.5,8.7-14.8,13.6-22
						c4.9-7.1,10-14.1,15.5-20.8c-11.6,7.4-32.4,26.4-39.8,37.7c-0.5-4.1,9-26.9,9-26.9S329,87.7,324,97.5c-5,9.9-15.1,30.1-21.5,51
						c-1.2-0.6-2.4-1.2-3.7-1.7c13.8-57.1,28-94.2,34.2-110.4c-12.2,22.3-19.5,37.2-25.9,47.2c0,0-14.2-7.6-29.3-10.4
						c0-0.5-1.9-16.3,5.6-54.3c-8.3,25.7-12.5,48.6-13,53.2c0,0-10.6-0.1-13.1,0.2c-2.7-6-5.4-14-5.4-14s0.9,11.4,0.3,15.2
						c-11.2,3.1-27.4,9.6-36.3,15.1c-3-7.3-11.8-29.1-14.9-36.3l-3.7-8.5l-3.9-8.4c-1.3-2.8-2.7-5.6-4.1-8.3
						c-0.7-1.4-1.4-2.7-2.2-4.1c0,0,1.3,2.8,1.9,4.2c1.2,2.8,2.5,5.6,3.8,8.5l3.6,8.5l3.4,8.6c3,7.7,10.9,29.5,13.7,37.2
						c-6.9,5-17.4,13.6-24.1,21c-7.6-13.2-14.1-26.3-24.1-49.3c3.7,11.2,7.2,22.4,10.7,33.6c0,0,0,0-0.1,0c0.1,0.3,0.2,0.6,0.3,0.8
						c1.6,5.4,3.3,10.7,4.9,16.1l7.6,25.3l7.4,25.3v0.2c0.4,1.4,4.2,13.2,4.2,13.2s-46.3-75.8-50.5-83.3c3.4,7.3,13.4,33,16.5,40.5
						c0,0-2.1,3.1-10.4,16.1l0,0c-2.6,4.4-5.3,9-7.9,13.6c-2.3-1.1-4.5-2.2-6.8-3.2l-3.8-1.7l-3.9-1.6c-10.4-4.2-21-7.6-31.8-10.3
						c10.7,3.2,21.1,7,31.3,11.6l3.8,1.7l3.7,1.8c2.2,1.1,4.4,2.2,6.6,3.4c-11.3,20.2-22.3,41.8-32.3,63.9c-0.3,0.7-1.5,1.9-3,3.2
						c-4.3,3-8.8,5.8-13.4,8.4c-1,0.6-1.9,1.1-2.9,1.6l-2.9,1.5c-2,0.9-4,2-6,2.8c-4,1.9-8.2,3.4-12.4,4.9c4.3-1.2,8.6-2.4,12.8-4
						c2.1-0.7,4.2-1.6,6.3-2.4l3.1-1.3c1-0.4,2.1-0.9,3.1-1.4c2.6-1.2,5.1-2.5,7.6-3.8c1.4,0.7,2.9,1.7,2.5,2.9
						c-2.8,6.4-5.4,12.8-8,19.3c-4.6,2.8-9.1,5.8-13.5,8.9c-5.6,3.9-10.9,8-16.2,12.2c-2.6,2.2-5.2,4.3-7.7,6.6
						c-2.6,2.2-5,4.5-7.5,6.9C47,304.4,38,314.5,30,325.3c8.5-10.4,17.9-20,28-28.8c2.6-2.2,5.1-4.4,7.7-6.4
						c2.6-2.1,5.3-4.1,7.9-6.1c5.4-3.9,10.9-7.8,16.5-11.3c2.8-1.8,5.7-3.5,8.6-5.2c-6,15.2-11.4,30.5-16.1,45.6
						c-2.9,7.8-5.6,16.5-8.2,25c-1.7,1.1-3.4,2.1-5.2,3c-3.8,2.1-7.9,3.9-12,5.3c-4.2,1.4-8.5,2.3-12.9,2.5
						c4.4,0.1,8.9-0.5,13.2-1.6s8.5-2.6,12.6-4.5c1.1-0.5,2.2-1.1,3.4-1.6c-3.7,12.6-6.8,24.4-8.7,31.9
						c-8.2,13.1-15.3,26.8-21.5,40.9c-4,9.1-7.6,18.5-10.7,27.9c-3,9.5-5.7,19.1-7.4,28.9c2-9.7,5-19.2,8.4-28.6
						c3.4-9.3,7.2-18.5,11.5-27.4c8.6-17.9,18.7-35,30.4-50.9l2.2-3l1.1-1.5l1.1-1.5l4.6-5.8c1.5-1.9,3.2-3.8,4.7-5.7l2.4-2.8
						l2.5-2.8c0.5-0.6,1-1.2,1.5-1.7c6.1-5.3,13.1-10.5,21.1-15C83.5,366,78.6,377.7,64,415.4c-11.6,28.6-21.9,82.2-21.9,82.2
						s3.9-8.7,9.5-19.9c-0.6,2.8-1.1,5.5-1.7,8.3c-1.8,9.5-3.4,19.1-4.8,28.7c-2.7,19.2-4.7,38.4-5.6,57.8
						c1.5-19.3,4.2-38.4,7.5-57.5c1.7-9.5,3.6-19,5.7-28.4c1.7-7.3,3.4-14.5,5.4-21.7c2.4-4.5,4.9-9.1,7.4-13.4
						c-0.1,11.1,4.8,29.5,8.2,41c-0.1,2.3-0.3,4.5-0.4,6.8c-0.1,1.6-0.1,3.2-0.2,4.8l-0.1,4.8l-0.1,4.8c0,1.6,0,3.2,0,4.8
						c-0.1,12.8,0.5,25.5,1.5,38.2c1.1,12.7,2.7,25.3,5.2,37.8c-1.9-12.6-2.8-25.2-3.3-37.9c-0.4-12.7-0.3-25.3,0.4-38
						c0.1-1.6,0.1-3.2,0.3-4.7l0.4-4.7l0.4-4.7c0.1-1.6,0.2-3.1,0.4-4.7l0,0c3.6-7.9,8.2-15.1,13.9-21.4c2.7-3.1,5.8-6.4,9-9.8
						c-1.4,9.6-1.9,16.5-1.9,16.5s13.9-29.4,18.2-33.5c-10.3,31.7-14,39-21.1,62.9s-3.1,42.1-3.1,42.1s4.3-14.9,10.7-24.3
						c-1.7,9.5-2.8,19.1-3.4,28.7c-0.3,6.9-0.3,13.7,0,20.6c0.1,1.7,0.2,3.4,0.3,5.1l0.2,2.6l0.3,2.6c0.2,1.7,0.3,3.4,0.6,5.1
						l0.7,5.1c0.2,1.7,0.6,3.4,0.9,5c0.3,1.7,0.6,3.4,1,5c0.8,3.3,1.5,6.7,2.4,9.9c1.7,6.6,4,13,6.5,19.4c-2.1-6.5-4.1-13-5.5-19.6
						c-0.8-3.3-1.3-6.6-2-10c-0.3-1.7-0.5-3.4-0.7-5c-0.2-1.7-0.5-3.3-0.6-5l-0.5-5c-0.1-1.7-0.2-3.4-0.3-5.1l-0.1-2.5l-0.1-2.5
						c0-1.7-0.1-3.4-0.1-5.1c0-6.8,0.4-13.5,1-20.2c1.1-10.5,2.9-21,5.4-31.2c1.8,1.8,3.9,3.9,6.2,6c0.1,1.5,0.2,2.9,0.3,4.4
						c0.8,11.4,2.2,22.7,4.7,33.8c-1.9-11.2-2.6-22.5-2.8-33.9c0-0.7,0-1.5,0-2.2c0.9,0.9,1.9,1.7,2.8,2.6
						c1.5,1.4-0.2,13.4,2.6,26.3c-0.1-15.6,13.2-41.4,13.2-41.4s-2.1,11.8-2,26.9c0.8,21.8,9,51.3,9,51.3s0.9-30,5.3-41.8
						c23,15.6,54.5,26.8,85.9,31.1c2.6,0.4,5.2-21.6,7.8-21.3c1.7,0.2-2,45.9-2,45.9s9.3-17.5,11.5-23c3.3,0.2,6.5,0.3,9.7,0.3
						c1.9,0,3.7,0,5.5-0.1c1.6,0,3.4-22.4,3.4-22.4l2.1,6.5c0.8,3.6,1.6,7.2,2.3,10.8c0.9,4.1,1.4,8.3,2.1,12.5l0.7,6.3
						c0.1,1.1,0.2,2.1,0.3,3.2l0.2,3.2c0.1,2.1,0.3,4.2,0.4,6.4l0.1,6.4c0,1.1,0.1,2.1,0.1,3.2l-0.1,3.2l-0.2,6.4l1.2-6.3l0.6-3.2
						c0.2-1.1,0.3-2.1,0.4-3.2l0.8-6.4c0.2-2.1,0.4-4.3,0.6-6.5l0.3-3.2c0-0.7,0.1-1.5,0.1-2.2c0-0.2,3.8-16.1,6.3-16.5
						c3.2-0.4,6.3-1,9.5-1.6c2-0.4,6,6.2,6,6.2l-0.7-38.5l12.2,51.2c0,0,1.1-23.3,2.3-23.6c24.8-7.3,47.6-19.1,67.4-33.7
						c3.2-2.3,16.1,37.2,16.1,37.2s5.3-21.8,2-52.1c2.9-2.7,5.8-5.5,8.6-8.3c0.4-0.4,0.9-0.9,1.3-1.4c0.1,0.3,0.3,0.7,0.4,1l0.9,2.2
						l0.8,2.3l1.6,4.6l1.4,4.6l0.7,2.3c0.2,0.8,0.4,1.6,0.6,2.3l1.2,4.7c0.8,3.1,1.4,6.3,2.1,9.5c-0.1-3.2-0.1-6.5-0.2-9.8l-0.3-4.9
						c-0.1-0.8-0.1-1.6-0.1-2.5l-0.2-2.4l-0.5-4.9l-0.6-4.9l-0.3-2.5l-0.4-2.4c-0.3-1.6-0.5-3.3-0.8-4.9c-0.1-0.3-0.1-0.6-0.2-0.9
						c0.2-0.3,0.5-0.5,0.7-0.8c1.1-1.2,5.2,2.5,9,6.4c0.1,0.3,0.1,0.5,0.2,0.8c1.7,8.7,3.2,17.5,4.5,26.4l0.9,6.6
						c0.3,2.2,0.6,4.4,0.8,6.7l0.7,6.7l0.6,6.7c0.4,4.5,0.7,8.9,1,13.4s0.4,9,0.7,13.4c0.1-4.5,0.3-9,0.3-13.5s0.1-9,0-13.5
						l-0.1-6.7l-0.2-6.7c-0.1-2.2-0.2-4.5-0.3-6.7l-0.4-6.7c-0.5-7.1-1.1-14.3-1.9-21.4c-0.4-4.5-1.5-15.5-3.8-26.8
						c-0.3-1.4-0.6-2.8-1-4.2c-0.1-0.5-0.2-1-0.3-1.5c0-0.1,0-0.2-0.1-0.3c0-0.1-0.1-0.2-0.2-0.4c-7-26.3-21.8-59.6-25.3-67.6
						l0.2,0.3c0.4,0.6,0.7,1.2,1.1,1.8l2.2,3.6c5.9,9.6,11.1,19.6,15.9,29.8l3.5,7.7l3.2,7.8c2,5.3,4,10.6,5.8,16
						c3.5,10.8,6.5,21.7,8.4,32.9c-1.2-11.3-3.6-22.5-6.5-33.5c-1.4-5.5-3.1-11-4.9-16.4l-2.8-8.1l-3.1-8c-3.7-9.1-7.6-18.2-12.2-27
						c8,6.3,18.6,15.3,26.3,24.2c1.8,4.8,3.5,9.7,5,14.6c2.1,6.4,3.9,12.9,5.6,19.5l2.4,9.9l2.1,9.9c2.6,13.3,4.6,26.7,5.7,40.2
						l0.4,5.1c0.1,0.8,0.2,1.7,0.2,2.5l0.1,2.5l0.4,10.2c0.2,3.4,0.1,6.8,0.1,10.2v10.2l0.5-10.2c0.2-3.4,0.4-6.8,0.4-10.2l0.1-10.2
						v-2.6c0-0.9-0.1-1.7-0.1-2.6l-0.2-5.1c-0.4-13.6-1.8-27.2-3.8-40.8l-1.6-10.1l-2-10.1c-1.1-5.2-2.3-10.4-3.6-15.5
						c9.9,16.6,20,34.2,20,34.2l-27.4-88.5l22,31.4c0,0,1.5-12-1.7-28.2c0.7,1.4,1.4,2.7,2.1,4.1l2.1,4.6l1.9,4.7
						c0.3,0.8,0.7,1.6,1,2.4l0.8,2.4c0.6,1.6,1.2,3.2,1.7,4.8c0.9,3.2,2,6.5,2.8,9.8c1.8,6.6,2.8,13.3,3.7,20.1
						c-0.3-6.8-0.6-13.7-1.8-20.5c-0.4-3.4-1.2-6.8-1.9-10.2c-0.4-1.7-0.8-3.4-1.2-5l-0.6-2.5c-0.2-0.8-0.5-1.7-0.7-2.5l-1.5-5
						l-1.7-4.9c-0.5-1.7-1.2-3.3-1.9-4.9c-0.7-1.6-1.3-3.2-2-4.8l-2.2-4.8c-0.7-1.6-1.5-3.1-2.3-4.7c-0.8-1.6-1.6-3.1-2.4-4.6
						c-0.8-1.5-1.7-3.1-2.6-4.6c-3.5-6.1-7.4-11.9-11.5-17.5c-2.6-3.5-5.3-6.9-8-10.2c-8-11-16.2-19.9-23.9-27.4
						c-0.4-5-0.9-10.1-1.6-15.2c15.2,7.5,27,14.4,37,21.2c0.3,0.7,0.6,1.4,0.8,2.2l1.4,4.3c0.2,0.7,0.5,1.4,0.7,2.2l0.6,2.2
						c0.4,1.5,0.8,2.9,1.2,4.4l1,4.4l0.5,2.2l0.4,2.2l0.8,4.5c0.1,0.8,0.2,1.5,0.3,2.3l0.3,2.3l0.5,4.6v-4.6v-2.3
						c0-0.8,0-1.5-0.1-2.3l-0.3-4.6l-0.1-2.3l-0.3-2.3l-0.5-4.6c-0.2-1.5-0.5-3-0.7-4.6l-0.4-2.3c-0.1-0.8-0.3-1.5-0.5-2.3l-0.4-2
						c1.8,1.3,3.5,2.5,5.1,3.8c1.2,1,2.4,2.1,3.7,3.1c0.8,0.7,1.6,1.3,2.4,2c0.5,0.8,1.1,1.5,1.6,2.3c6,8.8,11.5,18,16.7,27.3
						c5.1,9.4,9.8,19,14.1,28.8s8.1,19.8,11.5,30c1.7,5.1,3.3,10.2,4.7,15.4s2.8,10.4,3.9,15.6C519.9,481,518.7,475.8,517.4,470.6z
						 M420.5,299.7c-3.4-1.9-6.9-3.6-10.5-5.4c2.7,0.8,5.1,1.6,7.4,2.2C418.5,297.6,419.5,298.7,420.5,299.7z"/>
				</defs>
				<clipPath id="SVGID_9_">
					<use xlink:href="#SVGID_8_"  style="overflow:visible;"/>
				</clipPath>
				<path class="st3" d="M372.9,344.8c-4.4-9.1-11.2-19.2-20.2-28.4c-2.3-2.4,0.5-6.3,3.2-4.6c6.8,4.4,12,8.6,15.1,11.2
					c0.9,0.8,2.2-0.2,1.8-1.4c-1.8-5.7-5.3-15.9-9-24c-9.1-23-23.1-47.3-38.1-67.4l0,0c-4.3-7.7-1.4-15.7-1.4-15.7l-5.6,6.7
					c-2.3,2.5-8.5,10.9-13.3,17.6c-1,1.4-2.9,0.1-2.3-1.5c3.3-8.4,8.1-20.5,12.4-29.5c-1.5,0.5-4.7,4.1-6.2,2.5
					c-14.3-15.4-28.2-20.1-38.6-20.1c-5.7,0-11.4,0.1-19.1,6c-1.6,1.3-5.2-0.2-7.4-0.5l0,0c-1-0.1-1.7,1-1.2,2l0.9,1.9
					c2.9,6.5,4.9,11.5,6.2,15.1c0.6,1.6-1.3,2.9-2.4,1.6c-3.2-4-7.3-8.9-9.5-11.3c-0.8-1.3-2.2-2.8-3.6-4.1
					c-1.4-1.2-3.4,0.2-2.9,2.1c0.9,3.4-1.5,9-2.5,11.2c-0.3,0.6-0.8,1.1-1.4,1.2l-3,0.9c-0.7,0.2-1,1.2-0.6,1.8
					c0.4,0.7,0.7,1.5,0.2,2c-14.9,18-29.6,40.8-40.4,63.5l0,0l0,0c-0.6,1.2-1.1,2.4-1.7,3.5c-2.1,3.5-5.2,6.3-5.2,6.3l1.4,4.4
					c-3.2,2.7-9.4,15.2-13,22.8c-0.5,1.1,0.7,2.1,1.5,1.2c2.3-2.4,5.5-5.3,9-7.8c1.7-1.2,3.5,1.2,2.2,2.8
					c-5.6,6.8-10.6,15.2-11,20.9c-2.7,5.2-3.6,10.2-3.9,13.8c-0.1,1.7,1.9,2.5,2.8,1.1c0.5-0.7,1.1-1.5,1.6-2.3
					c0.4,1.9,0.9,3.9,1.6,5.8l-2,22.6c-0.1,0.9,1.1,1.2,1.4,0.3c1.6-5.4,4.1-12.3,7.3-16.4c4.4-5.7,7.2-10.4,14.8-16.4
					c1.9-1.5,4.3,1,3,3.1c-5.2,8.9-9,18.5-11.6,27.7c-0.5,1.8-0.8,3.5-1.1,5.1c-0.4,2.3,2,4.1,3.8,2.7c1.5-1.2,3-2.1,3.4-1.7
					c5.3,4.9,14.1,12.5,24.1,20.8c2,1.7,15.1-31.8,15.1-31.8s-4.5,40.8-2.2,42.7c22.3,18.7,45.2,29.6,45.2,29.6s7,0.1,16.2-9.3
					c1.2-1.2,1.2-26.8,1.2-26.8s4.5,21.1,5.5,20.1c11.6-11.4,24.9-23.4,32.7-27.1c-0.6,3.8,2.3,8.1,2.3,8.1s5.2-6.4,11-15.4
					c4-2.6,7.7-5.3,11.1-8.2c4.4,3.3,7.5,11.9,7.5,11.9s2.1-7.5-1.6-17.4c-2.6-6.9-11-17.8-18-27.1c-1.3-1.7,0.7-4,2.3-2.7
					c1.5,1.2,3.1,2.5,4.7,3.8c3.3,3.9,6.9,9.6,8.5,12.3c0.2,0.4,0.8,0.2,0.7-0.3v-0.1c-0.2-1.7,1.6-2.9,2.9-1.8
					c0.4,0.3,0.8,0.7,1.2,1c3.1,2.8,5.7,6,7.6,9.6c0.1,0.2,4.2-9.3,5.6-16.6c0.3-1.5,2.1-1.9,2.9-0.7c1.1,1.6,2.2,3.3,3.2,4.8
					c0.8,1.2,2.6,0.2,2-1.2C378.3,356.4,375.6,350.1,372.9,344.8z"/>
			</g>
		</g>
		<g>
			<g>
				<defs>
					<path id="SVGID_10_" d="M517.4,470.6c-1.3-5.2-2.7-10.4-4.3-15.5c-3.1-10.3-6.7-20.5-10.7-30.4c-4-10-8.4-19.8-13.3-29.4
						c-3.5-6.9-7.2-13.7-11.2-20.3c2.7,2.2,5.4,4.3,8.1,6.4c-3.2-2.9-6.4-5.9-9.6-8.9c-1.1-1.8-2.2-3.6-3.3-5.3
						c-4.2-6.6-8.7-13.1-13.4-19.4c-3.2-6.1-6.7-12.8-10.1-18.7c1,0.8,2,1.6,3,2.5c6.6,5.5,13,11.4,19.1,17.6
						c6.1,6.2,11.9,12.7,17.2,19.6c-4.8-7.3-10.1-14.2-15.7-20.9c-5.6-6.7-11.6-13.1-17.9-19.2c-3.1-3.1-6.4-6-9.7-8.9
						c-1.3-1.1-2.6-2.2-4-3.3c-0.8-1-1.5-1.9-2.1-2.6c-5.8-6.1-11.8-10.2-18.1-13.6c-0.9-1.1-1.7-2.1-2.6-3.2
						c16.3,4.8,23.4,6.2,23.4,6.2s-5.8-6.8-9.9-15.3c-1-2.8-2.1-5.7-3.2-8.6l0,0l0,0c-4.2-11.2-8.8-22.3-13.6-33.4
						c-0.3-0.6,3.6-0.1,7.2,0.5c2.1,1.5,4.1,3.1,6.1,4.7c2.8,2.2,5.4,4.7,8.1,7.1c1.3,1.3,2.5,2.6,3.8,3.9l1.9,1.9l1.8,2l3.6,4.1
						l3.4,4.3l1.7,2.1c0.6,0.7,1.1,1.5,1.6,2.2l3.2,4.4c8.3,11.9,15.2,24.9,21.2,38.2c-5.4-13.6-11.7-26.9-19.5-39.3l-3-4.6
						c-0.5-0.8-1-1.6-1.5-2.3l-1.6-2.2l-3.2-4.5l-3.5-4.3l-1.7-2.2l-1.9-2.1c-1.2-1.4-2.5-2.8-3.7-4.1c-2.6-2.6-5.2-5.3-8-7.7
						c-4.1-3.7-8.5-7.2-13.1-10.3c-3.6-3.6-7.4-7.5-10-10.6c7.8,2.2,15.6,4.1,23.6,5.4c8.7,1.4,17.5,2.1,26.2,1.4
						c-8.7,0-17.4-1.3-25.8-3.3c-8.4-2-16.7-4.7-24.8-7.8c-0.9-0.4-1.8-0.7-2.7-1.1c-6.3-13.4-12.9-26.6-19.7-39.3
						c0.4-0.4,0.7-0.9,1.1-1.3c4.4-5,9-9.9,13.7-14.5c4.7-4.7,9.7-9.2,14.8-13.5c2.6-2.1,5.1-4.3,7.8-6.3c2.6-2.1,5.3-4,8-6
						c10.9-7.8,22.4-14.7,34.5-20.6c-12.3,5.3-24.3,11.7-35.6,19c-2.8,1.9-5.6,3.7-8.4,5.7c-2.8,1.9-5.5,4-8.2,6
						c-5.3,4.1-10.6,8.4-15.6,12.9s-9.9,9.2-14.6,14.1c-8.3-15.2-16.8-29.8-25.4-43.4c3-5.3,5.9-10.5,8.8-15.8
						c5.5-10.1,10.8-20.3,15.3-30.9c-4.9,10.4-10.7,20.3-16.5,30.2c-2.9,4.9-5.9,9.7-8.8,14.6c-1.6-2.4-3.1-4.9-4.7-7.2
						c-2-3-0.6-8.7,2.6-9.7l-10.8-2.5c-1.5-2.1-2.7-4.3-3.7-6.7c0.8-1.5,1.7-3.1,2.5-4.6c4.2-7.5,8.7-14.8,13.6-22
						c4.9-7.1,10-14.1,15.5-20.8c-11.6,7.4-32.4,26.4-39.8,37.7c-0.5-4.1,9-26.9,9-26.9S329,87.7,324,97.5c-5,9.9-15.1,30.1-21.5,51
						c-1.2-0.6-2.4-1.2-3.7-1.7c13.8-57.1,28-94.2,34.2-110.4c-12.2,22.3-19.5,37.2-25.9,47.2c0,0-14.2-7.6-29.3-10.4
						c0-0.5-1.9-16.3,5.6-54.3c-8.3,25.7-12.5,48.6-13,53.2c0,0-10.6-0.1-13.1,0.2c-2.7-6-5.4-14-5.4-14s0.9,11.4,0.3,15.2
						c-11.2,3.1-27.4,9.6-36.3,15.1c-3-7.3-11.8-29.1-14.9-36.3l-3.7-8.5l-3.9-8.4c-1.3-2.8-2.7-5.6-4.1-8.3
						c-0.7-1.4-1.4-2.7-2.2-4.1c0,0,1.3,2.8,1.9,4.2c1.2,2.8,2.5,5.6,3.8,8.5l3.6,8.5l3.4,8.6c3,7.7,10.9,29.5,13.7,37.2
						c-6.9,5-17.4,13.6-24.1,21c-7.6-13.2-14.1-26.3-24.1-49.3c3.7,11.2,7.2,22.4,10.7,33.6c0,0,0,0-0.1,0c0.1,0.3,0.2,0.6,0.3,0.8
						c1.6,5.4,3.3,10.7,4.9,16.1l7.6,25.3l7.4,25.3v0.2c0.4,1.4,4.2,13.2,4.2,13.2s-46.3-75.8-50.5-83.3c3.4,7.3,13.4,33,16.5,40.5
						c0,0-2.1,3.1-10.4,16.1l0,0c-2.6,4.4-5.3,9-7.9,13.6c-2.3-1.1-4.5-2.2-6.8-3.2l-3.8-1.7l-3.9-1.6c-10.4-4.2-21-7.6-31.8-10.3
						c10.7,3.2,21.1,7,31.3,11.6l3.8,1.7l3.7,1.8c2.2,1.1,4.4,2.2,6.6,3.4c-11.3,20.2-22.3,41.8-32.3,63.9c-0.3,0.7-1.5,1.9-3,3.2
						c-4.3,3-8.8,5.8-13.4,8.4c-1,0.6-1.9,1.1-2.9,1.6l-2.9,1.5c-2,0.9-4,2-6,2.8c-4,1.9-8.2,3.4-12.4,4.9c4.3-1.2,8.6-2.4,12.8-4
						c2.1-0.7,4.2-1.6,6.3-2.4l3.1-1.3c1-0.4,2.1-0.9,3.1-1.4c2.6-1.2,5.1-2.5,7.6-3.8c1.4,0.7,2.9,1.7,2.5,2.9
						c-2.8,6.4-5.4,12.8-8,19.3c-4.6,2.8-9.1,5.8-13.5,8.9c-5.6,3.9-10.9,8-16.2,12.2c-2.6,2.2-5.2,4.3-7.7,6.6
						c-2.6,2.2-5,4.5-7.5,6.9C47,304.4,38,314.5,30,325.3c8.5-10.4,17.9-20,28-28.8c2.6-2.2,5.1-4.4,7.7-6.4
						c2.6-2.1,5.3-4.1,7.9-6.1c5.4-3.9,10.9-7.8,16.5-11.3c2.8-1.8,5.7-3.5,8.6-5.2c-6,15.2-11.4,30.5-16.1,45.6
						c-2.9,7.8-5.6,16.5-8.2,25c-1.7,1.1-3.4,2.1-5.2,3c-3.8,2.1-7.9,3.9-12,5.3c-4.2,1.4-8.5,2.3-12.9,2.5
						c4.4,0.1,8.9-0.5,13.2-1.6s8.5-2.6,12.6-4.5c1.1-0.5,2.2-1.1,3.4-1.6c-3.7,12.6-6.8,24.4-8.7,31.9
						c-8.2,13.1-15.3,26.8-21.5,40.9c-4,9.1-7.6,18.5-10.7,27.9c-3,9.5-5.7,19.1-7.4,28.9c2-9.7,5-19.2,8.4-28.6
						c3.4-9.3,7.2-18.5,11.5-27.4c8.6-17.9,18.7-35,30.4-50.9l2.2-3l1.1-1.5l1.1-1.5l4.6-5.8c1.5-1.9,3.2-3.8,4.7-5.7l2.4-2.8
						l2.5-2.8c0.5-0.6,1-1.2,1.5-1.7c6.1-5.3,13.1-10.5,21.1-15C83.5,366,78.6,377.7,64,415.4c-11.6,28.6-21.9,82.2-21.9,82.2
						s3.9-8.7,9.5-19.9c-0.6,2.8-1.1,5.5-1.7,8.3c-1.8,9.5-3.4,19.1-4.8,28.7c-2.7,19.2-4.7,38.4-5.6,57.8
						c1.5-19.3,4.2-38.4,7.5-57.5c1.7-9.5,3.6-19,5.7-28.4c1.7-7.3,3.4-14.5,5.4-21.7c2.4-4.5,4.9-9.1,7.4-13.4
						c-0.1,11.1,4.8,29.5,8.2,41c-0.1,2.3-0.3,4.5-0.4,6.8c-0.1,1.6-0.1,3.2-0.2,4.8l-0.1,4.8l-0.1,4.8c0,1.6,0,3.2,0,4.8
						c-0.1,12.8,0.5,25.5,1.5,38.2c1.1,12.7,2.7,25.3,5.2,37.8c-1.9-12.6-2.8-25.2-3.3-37.9c-0.4-12.7-0.3-25.3,0.4-38
						c0.1-1.6,0.1-3.2,0.3-4.7l0.4-4.7l0.4-4.7c0.1-1.6,0.2-3.1,0.4-4.7l0,0c3.6-7.9,8.2-15.1,13.9-21.4c2.7-3.1,5.8-6.4,9-9.8
						c-1.4,9.6-1.9,16.5-1.9,16.5s13.9-29.4,18.2-33.5c-10.3,31.7-14,39-21.1,62.9s-3.1,42.1-3.1,42.1s4.3-14.9,10.7-24.3
						c-1.7,9.5-2.8,19.1-3.4,28.7c-0.3,6.9-0.3,13.7,0,20.6c0.1,1.7,0.2,3.4,0.3,5.1l0.2,2.6l0.3,2.6c0.2,1.7,0.3,3.4,0.6,5.1
						l0.7,5.1c0.2,1.7,0.6,3.4,0.9,5c0.3,1.7,0.6,3.4,1,5c0.8,3.3,1.5,6.7,2.4,9.9c1.7,6.6,4,13,6.5,19.4c-2.1-6.5-4.1-13-5.5-19.6
						c-0.8-3.3-1.3-6.6-2-10c-0.3-1.7-0.5-3.4-0.7-5c-0.2-1.7-0.5-3.3-0.6-5l-0.5-5c-0.1-1.7-0.2-3.4-0.3-5.1l-0.1-2.5l-0.1-2.5
						c0-1.7-0.1-3.4-0.1-5.1c0-6.8,0.4-13.5,1-20.2c1.1-10.5,2.9-21,5.4-31.2c1.8,1.8,3.9,3.9,6.2,6c0.1,1.5,0.2,2.9,0.3,4.4
						c0.8,11.4,2.2,22.7,4.7,33.8c-1.9-11.2-2.6-22.5-2.8-33.9c0-0.7,0-1.5,0-2.2c0.9,0.9,1.9,1.7,2.8,2.6
						c1.5,1.4-0.2,13.4,2.6,26.3c-0.1-15.6,13.2-41.4,13.2-41.4s-2.1,11.8-2,26.9c0.8,21.8,9,51.3,9,51.3s0.9-30,5.3-41.8
						c23,15.6,54.5,26.8,85.9,31.1c2.6,0.4,5.2-21.6,7.8-21.3c1.7,0.2-2,45.9-2,45.9s9.3-17.5,11.5-23c3.3,0.2,6.5,0.3,9.7,0.3
						c1.9,0,3.7,0,5.5-0.1c1.6,0,3.4-22.4,3.4-22.4l2.1,6.5c0.8,3.6,1.6,7.2,2.3,10.8c0.9,4.1,1.4,8.3,2.1,12.5l0.7,6.3
						c0.1,1.1,0.2,2.1,0.3,3.2l0.2,3.2c0.1,2.1,0.3,4.2,0.4,6.4l0.1,6.4c0,1.1,0.1,2.1,0.1,3.2l-0.1,3.2l-0.2,6.4l1.2-6.3l0.6-3.2
						c0.2-1.1,0.3-2.1,0.4-3.2l0.8-6.4c0.2-2.1,0.4-4.3,0.6-6.5l0.3-3.2c0-0.7,0.1-1.5,0.1-2.2c0-0.2,3.8-16.1,6.3-16.5
						c3.2-0.4,6.3-1,9.5-1.6c2-0.4,6,6.2,6,6.2l-0.7-38.5l12.2,51.2c0,0,1.1-23.3,2.3-23.6c24.8-7.3,47.6-19.1,67.4-33.7
						c3.2-2.3,16.1,37.2,16.1,37.2s5.3-21.8,2-52.1c2.9-2.7,5.8-5.5,8.6-8.3c0.4-0.4,0.9-0.9,1.3-1.4c0.1,0.3,0.3,0.7,0.4,1l0.9,2.2
						l0.8,2.3l1.6,4.6l1.4,4.6l0.7,2.3c0.2,0.8,0.4,1.6,0.6,2.3l1.2,4.7c0.8,3.1,1.4,6.3,2.1,9.5c-0.1-3.2-0.1-6.5-0.2-9.8l-0.3-4.9
						c-0.1-0.8-0.1-1.6-0.1-2.5l-0.2-2.4l-0.5-4.9l-0.6-4.9l-0.3-2.5l-0.4-2.4c-0.3-1.6-0.5-3.3-0.8-4.9c-0.1-0.3-0.1-0.6-0.2-0.9
						c0.2-0.3,0.5-0.5,0.7-0.8c1.1-1.2,5.2,2.5,9,6.4c0.1,0.3,0.1,0.5,0.2,0.8c1.7,8.7,3.2,17.5,4.5,26.4l0.9,6.6
						c0.3,2.2,0.6,4.4,0.8,6.7l0.7,6.7l0.6,6.7c0.4,4.5,0.7,8.9,1,13.4s0.4,9,0.7,13.4c0.1-4.5,0.3-9,0.3-13.5s0.1-9,0-13.5
						l-0.1-6.7l-0.2-6.7c-0.1-2.2-0.2-4.5-0.3-6.7l-0.4-6.7c-0.5-7.1-1.1-14.3-1.9-21.4c-0.4-4.5-1.5-15.5-3.8-26.8
						c-0.3-1.4-0.6-2.8-1-4.2c-0.1-0.5-0.2-1-0.3-1.5c0-0.1,0-0.2-0.1-0.3c0-0.1-0.1-0.2-0.2-0.4c-7-26.3-21.8-59.6-25.3-67.6
						l0.2,0.3c0.4,0.6,0.7,1.2,1.1,1.8l2.2,3.6c5.9,9.6,11.1,19.6,15.9,29.8l3.5,7.7l3.2,7.8c2,5.3,4,10.6,5.8,16
						c3.5,10.8,6.5,21.7,8.4,32.9c-1.2-11.3-3.6-22.5-6.5-33.5c-1.4-5.5-3.1-11-4.9-16.4l-2.8-8.1l-3.1-8c-3.7-9.1-7.6-18.2-12.2-27
						c8,6.3,18.6,15.3,26.3,24.2c1.8,4.8,3.5,9.7,5,14.6c2.1,6.4,3.9,12.9,5.6,19.5l2.4,9.9l2.1,9.9c2.6,13.3,4.6,26.7,5.7,40.2
						l0.4,5.1c0.1,0.8,0.2,1.7,0.2,2.5l0.1,2.5l0.4,10.2c0.2,3.4,0.1,6.8,0.1,10.2v10.2l0.5-10.2c0.2-3.4,0.4-6.8,0.4-10.2l0.1-10.2
						v-2.6c0-0.9-0.1-1.7-0.1-2.6l-0.2-5.1c-0.4-13.6-1.8-27.2-3.8-40.8l-1.6-10.1l-2-10.1c-1.1-5.2-2.3-10.4-3.6-15.5
						c9.9,16.6,20,34.2,20,34.2l-27.4-88.5l22,31.4c0,0,1.5-12-1.7-28.2c0.7,1.4,1.4,2.7,2.1,4.1l2.1,4.6l1.9,4.7
						c0.3,0.8,0.7,1.6,1,2.4l0.8,2.4c0.6,1.6,1.2,3.2,1.7,4.8c0.9,3.2,2,6.5,2.8,9.8c1.8,6.6,2.8,13.3,3.7,20.1
						c-0.3-6.8-0.6-13.7-1.8-20.5c-0.4-3.4-1.2-6.8-1.9-10.2c-0.4-1.7-0.8-3.4-1.2-5l-0.6-2.5c-0.2-0.8-0.5-1.7-0.7-2.5l-1.5-5
						l-1.7-4.9c-0.5-1.7-1.2-3.3-1.9-4.9c-0.7-1.6-1.3-3.2-2-4.8l-2.2-4.8c-0.7-1.6-1.5-3.1-2.3-4.7c-0.8-1.6-1.6-3.1-2.4-4.6
						c-0.8-1.5-1.7-3.1-2.6-4.6c-3.5-6.1-7.4-11.9-11.5-17.5c-2.6-3.5-5.3-6.9-8-10.2c-8-11-16.2-19.9-23.9-27.4
						c-0.4-5-0.9-10.1-1.6-15.2c15.2,7.5,27,14.4,37,21.2c0.3,0.7,0.6,1.4,0.8,2.2l1.4,4.3c0.2,0.7,0.5,1.4,0.7,2.2l0.6,2.2
						c0.4,1.5,0.8,2.9,1.2,4.4l1,4.4l0.5,2.2l0.4,2.2l0.8,4.5c0.1,0.8,0.2,1.5,0.3,2.3l0.3,2.3l0.5,4.6v-4.6v-2.3
						c0-0.8,0-1.5-0.1-2.3l-0.3-4.6l-0.1-2.3l-0.3-2.3l-0.5-4.6c-0.2-1.5-0.5-3-0.7-4.6l-0.4-2.3c-0.1-0.8-0.3-1.5-0.5-2.3l-0.4-2
						c1.8,1.3,3.5,2.5,5.1,3.8c1.2,1,2.4,2.1,3.7,3.1c0.8,0.7,1.6,1.3,2.4,2c0.5,0.8,1.1,1.5,1.6,2.3c6,8.8,11.5,18,16.7,27.3
						c5.1,9.4,9.8,19,14.1,28.8s8.1,19.8,11.5,30c1.7,5.1,3.3,10.2,4.7,15.4s2.8,10.4,3.9,15.6C519.9,481,518.7,475.8,517.4,470.6z
						 M420.5,299.7c-3.4-1.9-6.9-3.6-10.5-5.4c2.7,0.8,5.1,1.6,7.4,2.2C418.5,297.6,419.5,298.7,420.5,299.7z"/>
				</defs>
				<clipPath id="SVGID_11_">
					<use xlink:href="#SVGID_10_"  style="overflow:visible;"/>
				</clipPath>
				<path class="st4" d="M161,499.8c0,0-1.6,22.2,3,43.3c-2-22.5,1.7-43.4,1.7-43.4c0.1-1.4-1.1-2.5-2.5-2.4H163
					C161.9,497.5,160.9,498.6,161,499.8z"/>
			</g>
		</g>
	</g>
	<g id="Boots_1_">
		<g id="Boot_L_1_">
			<path class="st5" d="M346.9,618.3c0,0-2.6,18.2,0.5,20.8c8.4,6.8,53.9,15,81.5,7.7c17.8-4.6,17.8-12.1,17.8-12.1
				s1.8-9.7-1.9-14.9c-4.5-6.2-12.9-8.1-41.7-18.9C394.1,608.4,380.5,620.2,346.9,618.3z"/>
			<path class="st6" d="M346.9,618.3c0,0-1.9,9.6-0.2,11.8c6.4,8.6,53,14.5,80.1,5.3c27.1-9.3,18.1-15.5,18.1-15.5
				s-5.2-7.4-41.7-18.9C394.1,608.4,380.5,620.2,346.9,618.3z"/>
			<path class="st7" d="M396.8,605.6c0,0,20.4,3.5,22.4,6c1.9,2.5,0.6,6.2-9,4.3c-4.4-0.9-22.6-3.7-22.6-3.7L396.8,605.6z"/>
			<path class="st8" d="M395.7,617.5c-0.1,0-0.2,0-0.3-0.1c-0.4-0.2-0.5-0.7-0.4-1c0.1-0.1,1.9-3.7,4.9-6.9c4.2-4.4,8.6-6,13-4.7
				c0.4,0.1,0.6,0.6,0.5,1s-0.6,0.6-1,0.5c-9.1-2.8-16,10.7-16,10.8C396.3,617.4,396,617.5,395.7,617.5z"/>
			<path class="st8" d="M401.5,620c-0.1,0-0.2,0-0.3-0.1c-0.4-0.2-0.5-0.7-0.4-1c0.1-0.1,1.9-3.7,4.9-6.9c4.2-4.4,8.6-6,13-4.7
				c0.4,0.1,0.6,0.6,0.5,1s-0.6,0.6-1,0.5c-9.1-2.8-16,10.7-16,10.8C402.1,619.9,401.8,620,401.5,620z"/>
		</g>
		<g id="Boot_R_1_">
			<path class="st5" d="M218.5,626.6l1.9,15.8c0,0,0.7,5.5-1.2,8c-1.9,2.5-11.5,19.3-22.3,23.6c-12.1,4.9-27.2,8.6-45.6,2.5
				c-9.8-3.2-15.1-18.8-9.6-28.2c7.4-12.8,21-28,21-28S183.5,637,218.5,626.6z"/>
			<path class="st6" d="M218.5,626.6c3.5,4.8,1.9,15.8,1.9,15.8s-10.5,10.9-19,17.1c-11.4,8.2-51.6,10.9-60.2-1.9
				c-6.8-10.2,21.5-37.3,21.5-37.3S185.3,632,218.5,626.6z"/>
			<path class="st9" d="M166.9,645.4c-5.1-2.3-5.4-9.7-2.1-14.1c2.2-2.9,4.2-5.5,6-7.8c10.4,3.6,23.5,4.2,23,4.3
				c-1.7,1.6-5,7.2-12.8,15.6C177.2,647.6,170.7,647.1,166.9,645.4z M182.1,622.1L182.1,622.1L182.1,622.1z M182.1,622.1
				L182.1,622.1L182.1,622.1z"/>
			<path class="st8" d="M185.4,643.4c-0.2,0-0.4-0.1-0.5-0.2c-8.7-7.2-25.5-7-25.7-7c-0.4,0-0.8-0.3-0.8-0.8c0-0.4,0.3-0.8,0.8-0.8
				c0.7,0,17.5-0.2,26.7,7.4c0.3,0.3,0.4,0.8,0.1,1.1C185.9,643.3,185.7,643.4,185.4,643.4z"/>
			<path class="st8" d="M189.2,638.3c-0.2,0-0.3,0-0.4-0.1c-10.6-7.3-25.6-7.1-25.7-7.1c-0.4,0-0.8-0.3-0.8-0.8
				c0-0.4,0.3-0.8,0.8-0.8c0.6,0,15.6-0.2,26.6,7.4c0.4,0.2,0.4,0.7,0.2,1.1C189.7,638.2,189.5,638.3,189.2,638.3z"/>
		</g>
	</g>
	<g id="Pants_1_">
		<path class="st10" d="M345.6,618.2c0,0,20.3-0.6,58.7-17l3,0.9C407.2,602.2,384.3,634.8,345.6,618.2z"/>
		<g>
			<g>
				<g>
					<defs>
						<path id="SVGID_12_" d="M196.3,486.6c7.8-2.6,79.8-25.7,146.8-7.3c0.4,0.1,0.7,0.3,0.9,0.6c20.2,29.5,56,111.2,60.1,120.5
							c0.2,0.5,0.2,1.2-0.2,1.6c-2.5,3-12.2,13.8-27.2,17.6c-14.7,3.7-27-0.2-29.8-0.6c-0.5-0.1-0.9-0.4-1.2-0.8
							c-2.9-5.6-21.1-38.9-64.7-38.9c-43.3,0-57.2,40.8-59.2,47.5c-0.2,0.6-0.7,1-1.3,1.1c-3.7,0.6-16.9,2.5-30,1.3
							s-25.2-7.1-28.7-9c-0.6-0.3-0.9-1-0.8-1.7c1.7-9.7,14.2-79.9,34.4-131.1C195.5,487,195.8,486.7,196.3,486.6z"/>
					</defs>
					<clipPath id="SVGID_13_">
						<use xlink:href="#SVGID_12_"  style="overflow:visible;"/>
					</clipPath>
					<path class="st11" d="M196.3,486.6c7.8-2.6,79.8-25.7,146.8-7.3c0.4,0.1,0.7,0.3,0.9,0.6c20.2,29.5,56,111.2,60.1,120.5
						c0.2,0.5,0.2,1.2-0.2,1.6c-2.5,3-12.2,13.8-27.2,17.6c-14.7,3.7-27-0.2-29.8-0.6c-0.5-0.1-0.9-0.4-1.2-0.8
						c-2.9-5.6-21.1-38.9-64.7-38.9c-43.3,0-57.2,40.8-59.2,47.5c-0.2,0.6-0.7,1-1.3,1.1c-3.7,0.6-16.9,2.5-30,1.3s-25.2-7.1-28.7-9
						c-0.6-0.3-0.9-1-0.8-1.7c1.7-9.7,14.2-79.9,34.4-131.1C195.5,487,195.8,486.7,196.3,486.6z"/>
				</g>
			</g>
			<g>
				<g>
					<defs>
						<path id="SVGID_14_" d="M196.3,486.6c7.8-2.6,79.8-25.7,146.8-7.3c0.4,0.1,0.7,0.3,0.9,0.6c20.2,29.5,56,111.2,60.1,120.5
							c0.2,0.5,0.2,1.2-0.2,1.6c-2.5,3-12.2,13.8-27.2,17.6c-14.7,3.7-27-0.2-29.8-0.6c-0.5-0.1-0.9-0.4-1.2-0.8
							c-2.9-5.6-21.1-38.9-64.7-38.9c-43.3,0-57.2,40.8-59.2,47.5c-0.2,0.6-0.7,1-1.3,1.1c-3.7,0.6-16.9,2.5-30,1.3
							s-25.2-7.1-28.7-9c-0.6-0.3-0.9-1-0.8-1.7c1.7-9.7,14.2-79.9,34.4-131.1C195.5,487,195.8,486.7,196.3,486.6z"/>
					</defs>
					<clipPath id="SVGID_15_">
						<use xlink:href="#SVGID_14_"  style="overflow:visible;"/>
					</clipPath>
					<path class="st12" d="M237.5,564.8l35.9-92.3c0,0,35.9-2.7,69.5,6.7c0.4,0.1,0.7,0.4,0.9,0.7c8.2,9.9,37.8,71.3,37.8,71.3
						C383.8,549.7,328.3,590.2,237.5,564.8z"/>
				</g>
			</g>
			<g>
				<g>
					<defs>
						<path id="SVGID_16_" d="M196.3,486.6c7.8-2.6,79.8-25.7,146.8-7.3c0.4,0.1,0.7,0.3,0.9,0.6c20.2,29.5,56,111.2,60.1,120.5
							c0.2,0.5,0.2,1.2-0.2,1.6c-2.5,3-12.2,13.8-27.2,17.6c-14.7,3.7-27-0.2-29.8-0.6c-0.5-0.1-0.9-0.4-1.2-0.8
							c-2.9-5.6-21.1-38.9-64.7-38.9c-43.3,0-57.2,40.8-59.2,47.5c-0.2,0.6-0.7,1-1.3,1.1c-3.7,0.6-16.9,2.5-30,1.3
							s-25.2-7.1-28.7-9c-0.6-0.3-0.9-1-0.8-1.7c1.7-9.7,14.2-79.9,34.4-131.1C195.5,487,195.8,486.7,196.3,486.6z"/>
					</defs>
					<clipPath id="SVGID_17_">
						<use xlink:href="#SVGID_16_"  style="overflow:visible;"/>
					</clipPath>
					
						<linearGradient id="SVGID_18_" gradientUnits="userSpaceOnUse" x1="172.1933" y1="346.0758" x2="190.636" y2="349.3278" gradientTransform="matrix(1 0 0 1 0 208)">
						<stop  offset="0" style="stop-color:#FFFFFF"/>
						<stop  offset="1" style="stop-color:#F0F0F0"/>
					</linearGradient>
					<path class="st13" d="M196.3,486.6c1.6-0.5-17.9,140.3-17.9,140.3c-7.9-2.3-14.3-5.4-16.7-6.7c-0.6-0.3-0.9-1-0.8-1.7
						c1.7-9.7,14.2-79.9,34.4-131.1C195.5,487,195.8,486.7,196.3,486.6z"/>
				</g>
			</g>
		</g>
	</g>
	<g id="Arms_1_">
		<circle class="st14" cx="269" cy="395.1" r="35.5"/>
		<g id="Arm_L_1_">
			<path class="st15" d="M379,427.2l-0.4,9.8c8.4,7.2,14.4,47.6,14.4,47.6S392.3,445.1,379,427.2z"/>
			<path class="st15" d="M380.1,425.4l-1.8,9.7c7.3,8.3,17.6,30.5,17.6,30.5S387.6,433.8,380.1,425.4z"/>
			<path class="st15" d="M380.9,449l-2.6,9.5c6.6,8.8,12,50.7,12,50.7S387.8,458,380.9,449z"/>
			<path class="st14" d="M351.8,395.5c18.1-1.3,34.6,16.9,37,50.3c2.3,33.4-5.6,84.1-23.6,85.4s-39.5-47.4-41.8-80.8
				S333.7,396.8,351.8,395.5z"/>
			<path class="st15" d="M387.6,433.3l-7.3,5.7c7.8,23.4,4.6,60.1,4.6,60.1S395,456.1,387.6,433.3z"/>
		</g>
		<path class="st16" d="M144.4,465.4l-4.8,43.1l8.6-42.4c0.3-1.3-0.5-2.6-1.6-2.7h-0.1C145.4,463.3,144.5,464.2,144.4,465.4z"/>
		<g id="Arm_R_1_">
			<path class="st17" d="M203.7,388.3c17.6,4.4,25.2,34.3,17,66.8c-8.2,32.4-21.3,86.4-38.9,81.9s-33-65.6-24.8-98
				C165.2,406.5,186.1,383.8,203.7,388.3z"/>
			<path class="st17" d="M169.3,411.2c0,0-10.4,11.3-12.7,23.3c7.6-12.7,13.8-14.7,13.8-14.7L169.3,411.2z"/>
			<path class="st17" d="M157.1,468.2c0,0-4.8,13.2-2.1,42c1-24.4,6.6-34.7,6.6-34.7L157.1,468.2z"/>
			<path class="st17" d="M161.7,438.5c0,0-10.3,11.3-12.6,23.3c7.6-12.7,13.7-14.8,13.7-14.8L161.7,438.5z"/>
			<path class="st17" d="M159,438.4c0,0-7.5,25.5-7.4,45.5c2.2-20.2,10.6-37.5,10.6-37.5L159,438.4z"/>
		</g>
	</g>
	<g id="Tee_1_">
		<g>
			<g>
				<defs>
					<path id="SVGID_19_" d="M392.8,427.9c0,0-12.4-18.3-30.5-41.8s-63.2-29.7-63.2-29.7S278.9,403,270.3,403S228,358,228,358
						s-31.8,7.8-49.9,31.3S155.4,428,155.4,428c-0.8,2.3,18.6,15.7,28.2,22.2L172.1,542c-0.4,3.8,33.1,25.9,115.1,25.9
						s97.9-25.4,97.6-26.8l-24.3-88.3C366.7,448.7,393.7,430.5,392.8,427.9z"/>
				</defs>
				<clipPath id="SVGID_20_">
					<use xlink:href="#SVGID_19_"  style="overflow:visible;"/>
				</clipPath>
				<path class="st18" d="M392.8,427.9c0,0-12.4-18.3-30.5-41.8s-63.2-29.7-63.2-29.7s-3.8-0.3-5.8-0.3h-53
					c-4.3,0-12.3,1.9-12.3,1.9s-31.8,7.8-49.9,31.3S155.4,428,155.4,428c-0.8,2.3,18.6,15.7,28.2,22.2L164.3,542
					c-0.4,3.8,41,25.9,123,25.9s105.7-25.4,105.4-26.8l-32.1-88.3C366.7,448.7,393.7,430.5,392.8,427.9z"/>
			</g>
		</g>
		<g>
			<g>
				<defs>
					<path id="SVGID_21_" d="M392.8,427.9c0,0-12.4-18.3-30.5-41.8s-63.2-29.7-63.2-29.7S278.9,403,270.3,403S228,358,228,358
						s-31.8,7.8-49.9,31.3S155.4,428,155.4,428c-0.8,2.3,18.6,15.7,28.2,22.2L172.1,542c-0.4,3.8,33.1,25.9,115.1,25.9
						s97.9-25.4,97.6-26.8l-24.3-88.3C366.7,448.7,393.7,430.5,392.8,427.9z"/>
				</defs>
				<clipPath id="SVGID_22_">
					<use xlink:href="#SVGID_21_"  style="overflow:visible;"/>
				</clipPath>
				<g class="st19">
					
						<linearGradient id="SVGID_23_" gradientUnits="userSpaceOnUse" x1="198.1383" y1="171.1707" x2="324.5849" y2="171.1707" gradientTransform="matrix(1 0 0 1 0 208)">
						<stop  offset="0" style="stop-color:#FFFFFF"/>
						<stop  offset="1" style="stop-color:#B1B1B1"/>
					</linearGradient>
					<path class="st20" d="M202.1,343.2c9,10.8,18.8,20.9,29,30.5s20.7,18.9,31.6,27.5c2.7,2.1,5.5,4.2,8.3,5.8
						c0.3,0.2,0.7,0.4,1,0.5s0.6,0.3,0.7,0.3l0,0l0,0c0,0,0,0-0.1,0h-0.2c-0.4,0-0.4,0-0.4,0s0.2-0.1,0.5-0.2c1-0.6,2.4-1.6,3.6-2.6
						c2.5-2.1,4.9-4.6,7.3-7c2.4-2.5,4.8-5,7.2-7.4c4.8-4.9,9.8-9.8,14.7-14.8c5-4.9,10-9.9,15.4-14.6l0.7,0.5
						c-1.5,3.3-3.2,6.4-5,9.5s-3.8,6.1-5.8,9c-4.1,5.9-8.5,11.5-13.4,16.7s-10.3,10-16.4,14.3c-1.6,1.1-3.1,2.1-5.3,3.1
						c-0.6,0.2-1.2,0.5-2,0.7c-0.5,0.1-0.9,0.2-1.8,0.1c-0.2,0-0.4-0.1-0.6-0.1l-0.4-0.1l-0.4-0.1l-0.3-0.1
						c-0.7-0.3-1.2-0.6-1.7-0.8c-0.5-0.3-0.9-0.5-1.3-0.8c-3.2-2.2-5.9-4.4-8.6-6.8c-5.4-4.7-10.6-9.5-15.6-14.5s-10-10-14.7-15.3
						c-4.8-5.2-9.5-10.5-14-16c-4.5-5.4-8.9-11-12.8-16.9L202.1,343.2z"/>
				</g>
			</g>
		</g>
		<g>
			<g>
				<defs>
					<path id="SVGID_24_" d="M392.8,427.9c0,0-12.4-18.3-30.5-41.8s-63.2-29.7-63.2-29.7S278.9,403,270.3,403S228,358,228,358
						s-31.8,7.8-49.9,31.3S155.4,428,155.4,428c-0.8,2.3,18.6,15.7,28.2,22.2L172.1,542c-0.4,3.8,33.1,25.9,115.1,25.9
						s97.9-25.4,97.6-26.8l-24.3-88.3C366.7,448.7,393.7,430.5,392.8,427.9z"/>
				</defs>
				<clipPath id="SVGID_25_">
					<use xlink:href="#SVGID_24_"  style="overflow:visible;"/>
				</clipPath>
				<g id="SPFx_1_" class="st21">
					<path class="st22" d="M246.2,458.9c-2.7-0.2-5.3-0.5-8-0.8c0-0.6,0-1.2,0-1.8c0-1.8-0.4-3.4-1.3-4.9c-0.9-1.4-2.3-2.2-4.3-2.5
						c-1.1-0.1-2,0-2.6,0.3c-0.7,0.3-1.2,0.8-1.6,1.4c-0.4,0.6-0.7,1.4-0.9,2.2c-0.2,0.8-0.2,1.7-0.2,2.7c0,1.1,0,2,0.1,2.8
						c0.1,0.7,0.3,1.4,0.6,2c0.3,0.6,0.8,1.2,1.4,1.7s1.4,1,2.5,1.6c2,1.1,4.1,2.1,6.1,3.1c1.8,0.9,3.2,1.8,4.3,2.8
						c1.1,1,2,2.1,2.6,3.4c0.6,1.3,1,2.8,1.2,4.4c0.2,1.6,0.3,3.4,0.3,5.5c0,2.3-0.2,4.5-0.7,6.5s-1.2,3.6-2.3,4.9
						c-1.1,1.4-2.5,2.4-4.3,3s-3.9,0.8-6.5,0.5c-1.9-0.2-3.7-0.8-5.4-1.7c-1.7-0.9-3.1-2-4.3-3.4c-1.2-1.4-2.1-2.9-2.8-4.6
						c-0.7-1.7-1-3.5-1-5.4c0-1,0-2,0-3c2.6,0.4,5.3,0.8,7.9,1.2c0,0.8,0,1.7,0,2.5c0,1.5,0.4,2.8,1.3,4.1s2.3,2.1,4.3,2.3
						c1.4,0.2,2.4,0.1,3.2-0.2c0.8-0.3,1.3-0.8,1.8-1.5c0.4-0.7,0.7-1.5,0.7-2.5c0.1-1,0.1-2.1,0.1-3.4c0-1.5-0.1-2.7-0.2-3.6
						c-0.1-0.9-0.3-1.7-0.6-2.3c-0.4-0.6-0.8-1.1-1.4-1.6c-0.6-0.4-1.4-0.9-2.4-1.4c-1.9-1-3.8-2-5.7-3.1c-3.4-1.9-5.7-4.1-6.9-6.6
						c-1.2-2.5-1.7-5.5-1.7-9c0-2.1,0.3-4,0.9-5.8s1.4-3.3,2.6-4.5c1.1-1.2,2.5-2.1,4.2-2.7c1.7-0.6,3.7-0.7,6-0.4
						c2,0.2,3.8,0.8,5.4,1.7s3.1,2,4.3,3.3c2.4,2.7,3.6,5.7,3.6,8.9C246.2,456.3,246.2,457.6,246.2,458.9z M252.1,499
						c0-18.5,0-37.1,0-55.6c4,0.3,8,0.5,12,0.6c2.2,0.1,4.1,0.4,5.8,1c1.7,0.6,3.2,1.6,4.5,3.1c1.4,1.5,2.3,3.2,2.8,5.1
						c0.5,2,0.8,4.6,0.8,7.9c0,2.5-0.1,4.6-0.4,6.3s-0.9,3.3-1.8,4.8c-1.1,1.8-2.6,3.2-4.4,4.2s-4.2,1.4-7.2,1.3
						c-1.4,0-2.7-0.1-4.1-0.2c0,7.2,0,14.5,0,21.7C257.4,499.3,254.8,499.2,252.1,499z M260.1,451.3c0,6.3,0,12.6,0,18.9
						c1.3,0.1,2.6,0.1,3.8,0.2c1.6,0.1,2.9-0.1,3.8-0.6c0.9-0.4,1.5-1.1,2-1.9c0.4-0.8,0.7-1.7,0.7-2.9c0.1-1.1,0.1-2.4,0.1-3.8
						c0-1.3,0-2.5-0.1-3.7s-0.3-2.2-0.7-3.1c-0.4-0.9-1-1.6-1.9-2.1c-0.8-0.5-2-0.8-3.6-0.8C262.9,451.5,261.5,451.4,260.1,451.3z
						 M284,499.8c0-18.5,0-37.1,0-55.6c7.9-0.1,15.9-0.5,23.8-1.2c0,2.5,0,5,0,7.5c-5.3,0.4-10.5,0.7-15.8,1c0,5.6,0,11.3,0,16.9
						c4.6-0.2,9.2-0.4,13.8-0.8c0,2.5,0,5,0,7.5c-4.6,0.3-9.2,0.6-13.8,0.8c0,7.9,0,15.8,0,23.8C289.3,499.7,286.7,499.8,284,499.8z
						 M308.4,498.6c3.3-7,6.5-14.1,9.8-21.2c-3.1-6.1-6.2-12.3-9.3-18.5c2.8-0.2,5.6-0.5,8.4-0.8c1.6,3.6,3.3,7.1,4.9,10.7
						c1.6-3.9,3.3-7.9,4.9-11.9c2.8-0.4,5.6-0.8,8.4-1.2c-3.1,7-6.3,13.9-9.4,20.7c3.3,6.3,6.6,12.6,9.9,18.8
						c-2.8,0.4-5.6,0.9-8.4,1.2c-1.8-3.8-3.6-7.6-5.4-11.4c-1.8,4.3-3.6,8.5-5.4,12.7C314,498.1,311.2,498.4,308.4,498.6z"/>
				</g>
			</g>
		</g>
		<g>
			<g>
				<defs>
					<path id="SVGID_26_" d="M392.8,427.9c0,0-12.4-18.3-30.5-41.8s-63.2-29.7-63.2-29.7S278.9,403,270.3,403S228,358,228,358
						s-31.8,7.8-49.9,31.3S155.4,428,155.4,428c-0.8,2.3,18.6,15.7,28.2,22.2L172.1,542c-0.4,3.8,33.1,25.9,115.1,25.9
						s97.9-25.4,97.6-26.8l-24.3-88.3C366.7,448.7,393.7,430.5,392.8,427.9z"/>
				</defs>
				<clipPath id="SVGID_27_">
					<use xlink:href="#SVGID_26_"  style="overflow:visible;"/>
				</clipPath>
				<path class="st23" d="M158.9,419.5c0,0,4.1-8.5,7.4-13.4c4.4,10.5,20.4,29.5,20.4,29.5l-1,4.7
					C185.7,440.4,170.8,432.2,158.9,419.5z"/>
			</g>
		</g>
		<g>
			<g>
				<defs>
					<path id="SVGID_28_" d="M392.8,427.9c0,0-12.4-18.3-30.5-41.8s-63.2-29.7-63.2-29.7S278.9,403,270.3,403S228,358,228,358
						s-31.8,7.8-49.9,31.3S155.4,428,155.4,428c-0.8,2.3,18.6,15.7,28.2,22.2L172.1,542c-0.4,3.8,33.1,25.9,115.1,25.9
						s97.9-25.4,97.6-26.8l-24.3-88.3C366.7,448.7,393.7,430.5,392.8,427.9z"/>
				</defs>
				<clipPath id="SVGID_29_">
					<use xlink:href="#SVGID_28_"  style="overflow:visible;"/>
				</clipPath>
				<path class="st24" d="M379.9,409.7c3.8,5.4,6.6,9.2,6.6,9.2c-1.7,4.2-28.6,26.7-28.6,26.7l-2.2-6.1
					C355.6,439.5,376.6,415.5,379.9,409.7z"/>
			</g>
		</g>
		<g>
			<g>
				<defs>
					<path id="SVGID_30_" d="M392.8,427.9c0,0-12.4-18.3-30.5-41.8s-63.2-29.7-63.2-29.7S278.9,403,270.3,403S228,358,228,358
						s-31.8,7.8-49.9,31.3S155.4,428,155.4,428c-0.8,2.3,18.6,15.7,28.2,22.2L172.1,542c-0.4,3.8,33.1,25.9,115.1,25.9
						s97.9-25.4,97.6-26.8l-24.3-88.3C366.7,448.7,393.7,430.5,392.8,427.9z"/>
				</defs>
				<clipPath id="SVGID_31_">
					<use xlink:href="#SVGID_30_"  style="overflow:visible;"/>
				</clipPath>
				<polygon class="st25" points="346.1,413.4 360.5,452.8 366.7,448.6 				"/>
			</g>
		</g>
		<g>
			<g>
				<defs>
					<path id="SVGID_32_" d="M392.8,427.9c0,0-12.4-18.3-30.5-41.8s-63.2-29.7-63.2-29.7S278.9,403,270.3,403S228,358,228,358
						s-31.8,7.8-49.9,31.3S155.4,428,155.4,428c-0.8,2.3,18.6,15.7,28.2,22.2L172.1,542c-0.4,3.8,33.1,25.9,115.1,25.9
						s97.9-25.4,97.6-26.8l-24.3-88.3C366.7,448.7,393.7,430.5,392.8,427.9z"/>
				</defs>
				<clipPath id="SVGID_33_">
					<use xlink:href="#SVGID_32_"  style="overflow:visible;"/>
				</clipPath>
				
					<linearGradient id="SVGID_34_" gradientUnits="userSpaceOnUse" x1="274.1" y1="252.0995" x2="392.8364" y2="252.0995" gradientTransform="matrix(1 0 0 1 0 208)">
					<stop  offset="0" style="stop-color:#E3E4E3"/>
					<stop  offset="1" style="stop-color:#000000"/>
				</linearGradient>
				<path class="st26" d="M274.1,352.3c0,0,47.1-0.6,83,27.9c12.8,13.7,35.7,47.6,35.7,47.6s1.1,1-8.8,8.5
					c-9.3,7-23.4,16.5-23.4,16.5l32.1,88.3c0,0-19,26.8-109,26.8L274.1,352.3z"/>
			</g>
		</g>
		<g>
			<g>
				<defs>
					<path id="SVGID_35_" d="M392.8,427.9c0,0-12.4-18.3-30.5-41.8s-63.2-29.7-63.2-29.7S278.9,403,270.3,403S228,358,228,358
						s-31.8,7.8-49.9,31.3S155.4,428,155.4,428c-0.8,2.3,18.6,15.7,28.2,22.2L172.1,542c-0.4,3.8,33.1,25.9,115.1,25.9
						s97.9-25.4,97.6-26.8l-24.3-88.3C366.7,448.7,393.7,430.5,392.8,427.9z"/>
				</defs>
				<clipPath id="SVGID_36_">
					<use xlink:href="#SVGID_35_"  style="overflow:visible;"/>
				</clipPath>
				<path class="st27" d="M190,420.2L164.3,542c11.1,14.1,24.2,10.6,24.2,10.6L190,420.2z"/>
			</g>
		</g>
		<g>
			<g>
				<defs>
					<path id="SVGID_37_" d="M392.8,427.9c0,0-12.4-18.3-30.5-41.8s-63.2-29.7-63.2-29.7S278.9,403,270.3,403S228,358,228,358
						s-31.8,7.8-49.9,31.3S155.4,428,155.4,428c-0.8,2.3,18.6,15.7,28.2,22.2L172.1,542c-0.4,3.8,33.1,25.9,115.1,25.9
						s97.9-25.4,97.6-26.8l-24.3-88.3C366.7,448.7,393.7,430.5,392.8,427.9z"/>
				</defs>
				<clipPath id="SVGID_38_">
					<use xlink:href="#SVGID_37_"  style="overflow:visible;"/>
				</clipPath>
				<polygon class="st28" points="188.9,425.4 172.8,442.7 183.7,450.1 				"/>
			</g>
		</g>
	</g>
	<g id="Face_1_">
		<path class="st29" d="M220.7,360.3c0,0,49.8,49.4,57.7,49.4c7.9,0,41.9-17.3,49.7-17.3c30.4,0,64.6,35.6,64.6,35.6
			s-11.7-17.2-28.3-38.7c-13.8-20.4-49.5-35-92.7-32.4C240.6,359.2,220.7,360.3,220.7,360.3z"/>
		
			<radialGradient id="face_2_" cx="268.3667" cy="99.6115" r="68.5772" gradientTransform="matrix(1 0 0 1 0 208)" gradientUnits="userSpaceOnUse">
			<stop  offset="0" style="stop-color:#754D24"/>
			<stop  offset="1" style="stop-color:#412312"/>
		</radialGradient>
		<path id="face_1_" class="st30" d="M328.2,290.2c-0.1-0.1-0.2-0.2-0.3-0.3c-2.6-3.2-3.9-7.2-3.6-11.4c0.1-1.1,0.1-17.8,0.1-18.9
			c0-30.2-24.4-15.5-54.6-15.5s-54.6-14.6-54.6,15.5v15.8c0,3.9-1.4,7.7-4,10.7c-0.9,1.1-1.8,2.1-2.7,3.2
			c-15.7,18.8-12.9,46.8,6.2,62.2c18.4,14.9,40.7,23.2,53.8,23.2c13.8,0,35.4-7.8,53.4-22.1C341.1,337.4,344,309.1,328.2,290.2z"/>
		<g id="hair_1_">
			<g>
				<g>
					<defs>
						<path id="SVGID_39_" d="M342.1,323.6c-1-2-2.3-4-3.7-6.1c-0.1-5.4-1.2-10.9-3.3-16c2.5,1.9,4.6,4.2,6.2,6.8
							c1.1,1.8,1.8,3,1.8,3s-3.5-10.8-7.3-18.4c-3.1-7.2-6.9-14.5-11.3-21.6c0-5.1,0-11,0-11.6c0-15.7-6.6-19.3-17.3-19.1
							c0.2-1.2,0.5-1.9,0.5-1.9l-1.8,1.9c-2.5,0.1-5.1,0.4-8,0.7c1.1-2.5,2.3-4.9,3.4-7c-1.1,0.3-3.3,2.7-4.4,1.6
							c-10.2-10-20-13.1-27.4-13.1c-4,0-8.1,0.1-13.5,3.9c-1.2,0.8-3.7-0.1-5.2-0.3c-1-0.1-1.7-0.2-1.7-0.2l1.4,2.7
							c2.2,4.5,3.6,9.7,4.6,14.2c-1-0.1-2-0.2-3-0.4c-2-4.5-4.3-9-5.7-10.3c-1.4-2.1-5.7-5-5.7-5l1.1,3.7c0.8,2.8,0,5.7-2.1,8
							l-4,1.1c0.4,0.1,0.8,0.3,1,0.6c-13.1-1.2-21.6,1.1-21.6,18.8v11.7c-2.6,4.1-5,8.3-7.1,12.5l0,0l0,0c-0.4,0.8-0.8,1.5-1.2,2.3
							c-1.5,2.3-3.7,4.1-3.7,4.1l1,2.9c-3.4,2.6-11.1,14.5-11.1,14.5c2.5-1.5,5-2.7,7.3-3.7c-1,3-1.6,6.1-1.9,9.2
							c-1.3,2.2-2.1,4.3-2.3,6c-3.7,6.6-2.7,12.7-2.7,12.7s1.2-2.3,3.1-4.5c0.3,1.3,0.7,2.5,1.1,3.8c0,0,3.3,3.5,3.8,2.9
							c1.4,3.5,3.3,6.8,5.6,9.8c-0.1,0.3-0.2,0.6-0.3,0.9c-1.1,3.9,3.6,3.4,4.3,4c3.8,3.2,10,8.1,17.1,13.6c0.2,0.2,0.5-0.1,1-0.7
							c2.6,1.5,5.2,2.9,7.7,4.1c0,2,0.1,3.4,0.5,3.7c15.9,12.2,32.1,19.3,32.1,19.3s4.9,0.1,11.5-6.1c0.4-0.4,0.7-5.4,0.8-9.9
							c0.6-0.2,1.2-0.3,1.9-0.5c0.9,3.2,1.8,6.3,2.2,6c5-4.5,10.4-9.1,15.1-12.6c2.7-1.3,5.4-2.8,8-4.3c0,2.3,1.7,4.6,1.7,4.6
							s3.7-4.2,7.8-10.1c2.8-1.7,5.5-3.5,7.9-5.4c3.1,2.1,5.3,7.8,5.3,7.8s1.5-4.9-1.1-11.3c-0.3-0.7-0.7-1.4-1.1-2.2
							c1.5-2,2.8-4.1,4-6.3c1.7,1.6,3.1,3.3,4.2,5.2c0.1,0.1,0.1,0.2,0.1,0.2s4.2-9.2,4.2-13.7c4.3,5.3,8.7,12.4,8.7,12.4
							S346.4,331.3,342.1,323.6z"/>
					</defs>
					<clipPath id="SVGID_40_">
						<use xlink:href="#SVGID_39_"  style="overflow:visible;"/>
					</clipPath>
					
						<radialGradient id="SVGID_41_" cx="271.8" cy="97.75" r="80.9017" gradientTransform="matrix(1 0 0 1 0 208)" gradientUnits="userSpaceOnUse">
						<stop  offset="0" style="stop-color:#754D24"/>
						<stop  offset="1" style="stop-color:#412312"/>
					</radialGradient>
					<path class="st31" d="M342.1,323.6c-1-2-2.3-4-3.7-6.1c-0.1-5.4-1.2-10.9-3.3-16c2.5,1.9,4.6,4.2,6.2,6.8c1.1,1.8,1.8,3,1.8,3
						s-3.5-10.8-7.3-18.4c-3.1-7.2-6.9-14.5-11.3-21.6c0-5.1,0-11,0-11.6c0-15.7-6.6-19.3-17.3-19.1c0.2-1.2,0.5-1.9,0.5-1.9
						l-1.8,1.9c-2.5,0.1-5.1,0.4-8,0.7c1.1-2.5,2.3-4.9,3.4-7c-1.1,0.3-3.3,2.7-4.4,1.6c-10.2-10-20-13.1-27.4-13.1
						c-4,0-8.1,0.1-13.5,3.9c-1.2,0.8-3.7-0.1-5.2-0.3c-1-0.1-1.7-0.2-1.7-0.2l1.4,2.7c2.2,4.5,3.6,9.7,4.6,14.2c-1-0.1-2-0.2-3-0.4
						c-2-4.5-4.3-9-5.7-10.3c-1.4-2.1-5.7-5-5.7-5l1.1,3.7c0.8,2.8,0,5.7-2.1,8l-4,1.1c0.4,0.1,0.8,0.3,1,0.6
						c-13.1-1.2-21.6,1.1-21.6,18.8v11.7c-2.6,4.1-5,8.3-7.1,12.5l0,0l0,0c-0.4,0.8-0.8,1.5-1.2,2.3c-1.5,2.3-3.7,4.1-3.7,4.1l1,2.9
						c-3.4,2.6-11.1,14.5-11.1,14.5c2.5-1.5,5-2.7,7.3-3.7c-1,3-1.6,6.1-1.9,9.2c-1.3,2.2-2.1,4.3-2.3,6c-3.7,6.6-2.7,12.7-2.7,12.7
						s1.2-2.3,3.1-4.5c0.3,1.3,0.7,2.5,1.1,3.8c0,0,3.3,3.5,3.8,2.9c1.4,3.5,3.3,6.8,5.6,9.8c-0.1,0.3-0.2,0.6-0.3,0.9
						c-1.1,3.9,3.6,3.4,4.3,4c3.8,3.2,10,8.1,17.1,13.6c0.2,0.2,0.5-0.1,1-0.7c2.6,1.5,5.2,2.9,7.7,4.1c0,2,0.1,3.4,0.5,3.7
						c15.9,12.2,32.1,19.3,32.1,19.3s4.9,0.1,11.5-6.1c0.4-0.4,0.7-5.4,0.8-9.9c0.6-0.2,1.2-0.3,1.9-0.5c0.9,3.2,1.8,6.3,2.2,6
						c5-4.5,10.4-9.1,15.1-12.6c2.7-1.3,5.4-2.8,8-4.3c0,2.3,1.7,4.6,1.7,4.6s3.7-4.2,7.8-10.1c2.8-1.7,5.5-3.5,7.9-5.4
						c3.1,2.1,5.3,7.8,5.3,7.8s1.5-4.9-1.1-11.3c-0.3-0.7-0.7-1.4-1.1-2.2c1.5-2,2.8-4.1,4-6.3c1.7,1.6,3.1,3.3,4.2,5.2
						c0.1,0.1,0.1,0.2,0.1,0.2s4.2-9.2,4.2-13.7c4.3,5.3,8.7,12.4,8.7,12.4S346.4,331.3,342.1,323.6z"/>
				</g>
			</g>
		</g>
		<g id="Mozzle_1_">
			<g>
				<g>
					<defs>
						<path id="SVGID_42_" d="M330.4,344.3c5.2-7,5.3-16.6,0.3-23.8C314.5,297.6,284.5,292,269,292c-16.3,0-45.5,5-61.4,27.7
							c-5,7.2-4.9,16.8,0.3,23.8c21.7,28.9,46.1,51.6,61.1,51.6C284.9,395.1,309.1,372.8,330.4,344.3z"/>
					</defs>
					<clipPath id="SVGID_43_">
						<use xlink:href="#SVGID_42_"  style="overflow:visible;"/>
					</clipPath>
					<path class="st32" d="M330.4,344.3c5.2-7,5.3-16.6,0.3-23.8C314.5,297.6,284.5,292,269,292c-16.3,0-45.5,5-61.4,27.7
						c-5,7.2-4.9,16.8,0.3,23.8c21.7,28.9,46.1,51.6,61.1,51.6C284.9,395.1,309.1,372.8,330.4,344.3z"/>
				</g>
			</g>
			<g>
				<g>
					<defs>
						<path id="SVGID_44_" d="M330.4,344.3c5.2-7,5.3-16.6,0.3-23.8C314.5,297.6,284.5,292,269,292c-16.3,0-45.5,5-61.4,27.7
							c-5,7.2-4.9,16.8,0.3,23.8c21.7,28.9,46.1,51.6,61.1,51.6C284.9,395.1,309.1,372.8,330.4,344.3z"/>
					</defs>
					<clipPath id="SVGID_45_">
						<use xlink:href="#SVGID_44_"  style="overflow:visible;"/>
					</clipPath>
				</g>
			</g>
			<g>
				<g>
					<defs>
						<path id="SVGID_46_" d="M330.4,344.3c5.2-7,5.3-16.6,0.3-23.8C314.5,297.6,284.5,292,269,292c-16.3,0-45.5,5-61.4,27.7
							c-5,7.2-4.9,16.8,0.3,23.8c21.7,28.9,46.1,51.6,61.1,51.6C284.9,395.1,309.1,372.8,330.4,344.3z"/>
					</defs>
					<clipPath id="SVGID_47_">
						<use xlink:href="#SVGID_46_"  style="overflow:visible;"/>
					</clipPath>
					<g id="nose_1_" class="st33">
						<g>
							<g>
								<g>
									<defs>
										<path id="SVGID_48_" d="M301.9,317.4c0.4-0.1,0.8-0.1,1.2-0.2c1-1.8,0.9-4-0.3-5.7l-7.1-10.1c-2.5-3.6-14.5-6.5-25.3-6.5
											s-26.2,2.9-28.8,6.5l-7.1,10.1c-1.2,1.7-1.3,3.9-0.4,5.7c0.7,0.1,1.3,0.1,2,0.2c6,1,8.8,4.3,8.3,7.6c0,0.1,0,0.2-0.1,0.3
											l11.4,8.3c7.7,5.6,18.1,5.6,25.8,0l12.1-8.8C293.2,321.6,296.1,318.5,301.9,317.4z"/>
									</defs>
									<clipPath id="SVGID_49_">
										<use xlink:href="#SVGID_48_"  style="overflow:visible;"/>
									</clipPath>
									
										<linearGradient id="SVGID_50_" gradientUnits="userSpaceOnUse" x1="231.6" y1="106.9" x2="305.7141" y2="106.9" gradientTransform="matrix(1 0 0 1 0 208)">
										<stop  offset="0" style="stop-color:#754D24"/>
										<stop  offset="1" style="stop-color:#412312"/>
									</linearGradient>
									<circle class="st34" cx="268.7" cy="314.9" r="37.1"/>
								</g>
							</g>
							<g>
								<g>
									<defs>
										<path id="SVGID_51_" d="M301.9,317.4c0.4-0.1,0.8-0.1,1.2-0.2c1-1.8,0.9-4-0.3-5.7l-7.1-10.1c-2.5-3.6-14.5-6.5-25.3-6.5
											s-26.2,2.9-28.8,6.5l-7.1,10.1c-1.2,1.7-1.3,3.9-0.4,5.7c0.7,0.1,1.3,0.1,2,0.2c6,1,8.8,4.3,8.3,7.6c0,0.1,0,0.2-0.1,0.3
											l11.4,8.3c7.7,5.6,18.1,5.6,25.8,0l12.1-8.8C293.2,321.6,296.1,318.5,301.9,317.4z"/>
									</defs>
									<clipPath id="SVGID_52_">
										<use xlink:href="#SVGID_51_"  style="overflow:visible;"/>
									</clipPath>
									<g class="st35">
										<path class="st15" d="M269.4,343.2c-0.6-0.6-0.9-1.2-1.2-1.8c-0.3-0.6-0.5-1.2-0.6-1.8c-0.3-1.2,0.2-2.3,0.4-3.5
											c0.2-1.2,0.4-2.3,0.6-3.5s0.5-2.3,0.8-3.5h0.4c0.3,1.2,0.6,2.3,0.8,3.5c0.2,1.2,0.4,2.3,0.6,3.5s0.7,2.3,0.4,3.5
											c-0.1,0.6-0.3,1.2-0.6,1.8c-0.3,0.6-0.6,1.2-1.2,1.8H269.4z"/>
									</g>
								</g>
							</g>
							<g>
								<g>
									<defs>
										<path id="SVGID_53_" d="M301.9,317.4c0.4-0.1,0.8-0.1,1.2-0.2c1-1.8,0.9-4-0.3-5.7l-7.1-10.1c-2.5-3.6-14.5-6.5-25.3-6.5
											s-26.2,2.9-28.8,6.5l-7.1,10.1c-1.2,1.7-1.3,3.9-0.4,5.7c0.7,0.1,1.3,0.1,2,0.2c6,1,8.8,4.3,8.3,7.6c0,0.1,0,0.2-0.1,0.3
											l11.4,8.3c7.7,5.6,18.1,5.6,25.8,0l12.1-8.8C293.2,321.6,296.1,318.5,301.9,317.4z"/>
									</defs>
									<clipPath id="SVGID_54_">
										<use xlink:href="#SVGID_53_"  style="overflow:visible;"/>
									</clipPath>
									<path class="st36" d="M247.6,318.8c-0.6,3.3-4.4,5.4-10.4,4.3s-12-4.8-11.4-8.1c0.6-3.3,7.5-4.8,13.5-3.8
										S248.2,315.5,247.6,318.8z"/>
								</g>
							</g>
							<g>
								<g>
									<defs>
										<path id="SVGID_55_" d="M301.9,317.4c0.4-0.1,0.8-0.1,1.2-0.2c1-1.8,0.9-4-0.3-5.7l-7.1-10.1c-2.5-3.6-14.5-6.5-25.3-6.5
											s-26.2,2.9-28.8,6.5l-7.1,10.1c-1.2,1.7-1.3,3.9-0.4,5.7c0.7,0.1,1.3,0.1,2,0.2c6,1,8.8,4.3,8.3,7.6c0,0.1,0,0.2-0.1,0.3
											l11.4,8.3c7.7,5.6,18.1,5.6,25.8,0l12.1-8.8C293.2,321.6,296.1,318.5,301.9,317.4z"/>
									</defs>
									<clipPath id="SVGID_56_">
										<use xlink:href="#SVGID_55_"  style="overflow:visible;"/>
									</clipPath>
									<path class="st37" d="M289.8,318.8c0.6,3.3,4.4,5.4,10.4,4.3s12-4.8,11.4-8.1c-0.6-3.3-7.5-4.8-13.5-3.8
										S289.2,315.5,289.8,318.8z"/>
								</g>
							</g>
						</g>
					</g>
				</g>
			</g>
		</g>
		<g id="mouth_1_">
			<path class="st5" d="M255.7,367c0,0,7.1,4.5,13.4,4.5c6.2,0,18-7.4,18-7.4"/>
			<path class="st38" d="M255.8,366.8c3.3-0.1,6.1,0.2,8.6,0.3c1.3,0.1,2.5,0.1,3.5,0.1c0.3,0,0.5,0,0.8,0c0.1,0,0.3,0,0.4,0
				l0.3-0.1c0.3,0,0.9-0.2,1.4-0.3c2.1-0.5,4.7-1.2,7.3-1.8c2.7-0.6,5.5-1.1,8.9-1h0.1c0.1,0,0.2,0.1,0.2,0.2c0,0.1,0,0.1-0.1,0.2
				c-2.4,1.6-4.8,3-7.4,4.2c-2.5,1.3-5.2,2.4-8,3.1c-1.4,0.3-2.9,0.4-4.4,0.2c-1.4-0.2-2.9-0.5-4.2-0.9c-2.7-0.9-5.3-2.1-7.7-3.7
				c-0.1-0.1-0.1-0.2-0.1-0.3s0.1-0.1,0.2-0.1L255.8,366.8z"/>
		</g>
		<g id="eye_l_1_">
			
				<radialGradient id="SVGID_57_" cx="301.05" cy="63" r="15.0511" gradientTransform="matrix(1 0 0 1 0 208)" gradientUnits="userSpaceOnUse">
				<stop  offset="0.7541" style="stop-color:#FFFFFF"/>
				<stop  offset="1" style="stop-color:#CBCACA"/>
			</radialGradient>
			<path class="st39" d="M315.5,274.9c0,8.6-4.7,11.7-13.3,11.7s-15.6-7-15.6-15.6s7-15.6,15.6-15.6S315.5,266.3,315.5,274.9z"/>
			
				<radialGradient id="SVGID_58_" cx="-385.5601" cy="1686.0604" r="15.7995" gradientTransform="matrix(0.6187 0 0 0.6187 538.6039 -771.5734)" gradientUnits="userSpaceOnUse">
				<stop  offset="0" style="stop-color:#333333"/>
				<stop  offset="0.6766" style="stop-color:#010101"/>
				<stop  offset="1" style="stop-color:#000000"/>
			</radialGradient>
			<circle class="st40" cx="300.1" cy="271.5" r="9.8"/>
			<circle class="st5" cx="298.8" cy="268.6" r="3.1"/>
		</g>
		<g id="eye_r_1_">
			
				<radialGradient id="SVGID_59_" cx="236.85" cy="63" r="15.2296" gradientTransform="matrix(1 0 0 1 0 208)" gradientUnits="userSpaceOnUse">
				<stop  offset="0.7541" style="stop-color:#FFFFFF"/>
				<stop  offset="1" style="stop-color:#CBCACA"/>
			</radialGradient>
			<path class="st41" d="M251.7,271c0,8.6-7,15.6-15.6,15.6s-14.1-3.1-14.1-11.7s5.4-19.5,14.1-19.5S251.7,262.4,251.7,271z"/>
			
				<radialGradient id="SVGID_60_" cx="-105.9893" cy="926.3714" r="12.9696" gradientTransform="matrix(0.7531 0 0 0.7531 318.3742 -426.198)" gradientUnits="userSpaceOnUse">
				<stop  offset="0" style="stop-color:#333333"/>
				<stop  offset="0.6766" style="stop-color:#010101"/>
				<stop  offset="1" style="stop-color:#000000"/>
			</radialGradient>
			<circle class="st42" cx="238.6" cy="271.5" r="9.8"/>
			<circle class="st5" cx="240.4" cy="268.6" r="3.1"/>
		</g>
		<g id="eyebrows_1_">
			<path class="st15" d="M328.2,259.7c-0.5-1.3-1.1-2.3-1.8-3.2c-0.3-0.5-0.7-0.9-1-1.3s-0.7-0.7-1-1.1c-1.4-1.4-3-2.5-4.8-3.5
				l-0.6-0.4l-0.7-0.4c-0.5-0.3-0.9-0.5-1.4-0.8c-1-0.5-1.9-1-3-1.6c-1-0.5-2-1.1-3.1-1.7s-2.1-1.2-3.2-2.1c1.3-0.5,2.6-0.7,3.9-0.9
				c1.3-0.1,2.6-0.1,3.9,0c0.7,0,1.3,0.2,1.9,0.3c0.6,0.1,1.3,0.3,1.9,0.5s1.2,0.5,1.9,0.8l0.9,0.4l0.9,0.5c0.6,0.4,1.2,0.7,1.7,1.2
				s1.1,0.9,1.6,1.4s0.9,1.1,1.3,1.7s0.7,1.3,1.1,1.9c0.1,0.3,0.2,0.7,0.4,1c0.1,0.3,0.2,0.7,0.3,1c0.1,0.7,0.2,1.4,0.2,2.1
				C329.3,257.1,329,258.5,328.2,259.7z"/>
			<path class="st15" d="M210.2,259.7c-0.8-1.1-1.1-2.5-1.2-4c0-0.7,0.1-1.4,0.2-2.1c0-0.4,0.2-0.7,0.3-1c0.1-0.3,0.2-0.7,0.4-1
				c0.3-0.6,0.6-1.3,1.1-1.9c0.4-0.6,0.9-1.1,1.3-1.7c0.5-0.5,1-1,1.6-1.4c0.5-0.5,1.1-0.8,1.7-1.2l0.9-0.5l0.9-0.4
				c0.6-0.3,1.2-0.5,1.9-0.8c0.6-0.2,1.3-0.3,1.9-0.5c0.6-0.1,1.3-0.3,1.9-0.3c1.3-0.1,2.6-0.2,3.9,0s2.6,0.4,3.9,0.9
				c-1.1,0.9-2.2,1.5-3.2,2.1c-1.1,0.6-2.1,1.2-3.1,1.7s-2,1.1-3,1.6c-0.5,0.3-0.9,0.5-1.4,0.8l-0.7,0.4l-0.6,0.4
				c-1.8,1-3.4,2.1-4.8,3.5c-0.3,0.4-0.7,0.7-1,1.1s-0.7,0.8-1,1.3C211.3,257.4,210.7,258.4,210.2,259.7z"/>
		</g>
	</g>
</g>
<g>
	<g>
		<path class="st43" d="M271.7,485.5c-15.5-0.1-31.1-0.7-46.5-1.9c1.1-14.4,2.3-28.8,3.4-43.2c14.4,1.1,28.9,1.7,43.3,1.8
			C271.8,456.6,271.7,471,271.7,485.5z"/>
		<path class="st44" d="M323.1,483.5c-15.5,1.2-31,1.9-46.5,1.9c-0.1-14.4-0.1-28.9-0.2-43.3c14.5-0.1,28.9-0.7,43.3-1.8
			C320.8,454.8,321.9,469.2,323.1,483.5L323.1,483.5z"/>
		<path class="st45" d="M271.5,533.3c-16.7-0.1-33.4-0.8-50.1-2.1c1.1-14.4,2.3-28.8,3.4-43.2c15.6,1.2,31.2,1.9,46.9,1.9
			C271.6,504.4,271.5,518.9,271.5,533.3z"/>
		<path class="st46" d="M326.8,531.2c-16.7,1.3-33.4,2-50.1,2.1c-0.1-14.4-0.1-28.9-0.2-43.3c15.6-0.1,31.3-0.7,46.9-1.9
			C324.6,502.5,325.7,516.9,326.8,531.2L326.8,531.2z"/>
	</g>
</g>
</svg>
