<?xml version="1.0" encoding="UTF-8" standalone="no"?>
<svg
   xmlns:dc="http://purl.org/dc/elements/1.1/"
   xmlns:cc="http://creativecommons.org/ns#"
   xmlns:rdf="http://www.w3.org/1999/02/22-rdf-syntax-ns#"
   xmlns:svg="http://www.w3.org/2000/svg"
   xmlns="http://www.w3.org/2000/svg"
   viewBox="0 0 1148.6934 370.66666"
   height="370.66666"
   width="1148.6934"
   xml:space="preserve"
   id="svg2"
   version="1.1"><metadata
     id="metadata8"><rdf:RDF><cc:Work
         rdf:about=""><dc:format>image/svg+xml</dc:format><dc:type
           rdf:resource="http://purl.org/dc/dcmitype/StillImage" /></cc:Work></rdf:RDF></metadata><defs
     id="defs6" /><g
     transform="matrix(1.3333333,0,0,-1.3333333,0,370.66667)"
     id="g10"><g
       transform="scale(0.1)"
       id="g12"><path
         id="path14"
         style="fill:currentColor;fill-opacity:1;fill-rule:nonzero;stroke:none"
         d="M 2367.91,897.48 C 2174.57,459.32 1776.74,230.012 1351.85,235.32 536.797,275.691 299.707,1215.48 844.398,1554.78 l 23.965,-23.93 c -9.3,-12.18 -40.914,-37.77 -91.84,-137.28 -59.343,-120.9 -77.437,-241.42 -70.418,-316.8 C 748.52,419.809 1669.02,286.211 1986.08,935.629 2389.66,1826.47 1319.93,2731.18 370.121,2039.72 l -21.933,21.9 C 598.016,2453 1086.16,2628.17 1552.39,2511.14 2265.34,2333.15 2648.07,1590.66 2367.91,897.48 Z m -762.05,14.102 c -66,-94.863 -175.89,-156.973 -300.34,-156.973 -201.84,0 -365.465,163.371 -365.465,364.911 0,192.63 149.495,350.38 338.955,363.95 v -0.01 c 118,4.73 227.94,-58.92 280.29,-162.16 56.44,-111.29 35.79,-248.57 -52.12,-341.14 32.89,-22.859 65.78,-45.719 98.68,-68.578 z M 330.813,1152.58 c -17.618,-144.92 -6.629,-190.182 -6.676,-207.4 l -32.246,-11.711 c -12.18,23.82 -43.153,107.801 -56.797,220.661 -34.891,430.87 259.14,819.15 706.754,891.43 410.522,60.24 803.032,-194.33 894.972,-550.65 l -32.34,-11.75 c -9.61,10.6 -26.75,39.44 -88.8,102.24 C 1220.6,2081.99 442.488,1854.22 330.813,1152.58 Z M 2678.84,1391.53 C 2649.53,2815.46 755.32,3346.15 26.0547,2011.81 58.2852,1988.52 102.863,1957.02 135.094,1933.75 79.2227,1816.59 41.9805,1697.25 21.6055,1578.31 7.4375,1500.32 0,1420 0,1337.94 0,599.012 599.938,0 1340,0 c 740.06,0 1340,599.012 1340,1337.94 0,17.95 -0.46,35.8 -1.16,53.59" /><path
         id="path16"
         style="fill:currentColor;fill-opacity:1;fill-rule:nonzero;stroke:none"
         d="m 8615.24,1693.02 h -288.7 V 875.16 h -223.88 v 817.86 H 7812.5 v 211.82 h 802.74 z m -1370.29,0 v -238.31 h 437.46 V 1284.09 H 7244.95 V 875.16 h -223.87 v 1029.68 h 705.51 V 1693.02 Z M 6702.98,1390 c 0,185.34 -117.83,320.67 -297.53,320.67 -104.58,0 -182.63,-39.72 -229.76,-91.2 l 35.35,-35.3 c -54.51,-45.6 -103.11,-108.85 -103.11,-222.12 0,-155.93 110.46,-292.72 297.52,-292.72 179.7,0 297.53,135.32 297.53,320.67 z m 226.83,0 c 0,-303.02 -217.99,-532.488 -524.36,-532.488 -313.72,0 -524.35,225.048 -524.35,497.178 0,176.52 69.24,304.49 170.86,388.34 l -35.35,35.3 c 78.06,80.9 220.93,144.15 388.84,144.15 306.37,0 524.36,-232.41 524.36,-532.48 z m -1379.01,98.55 c 176.74,-61.78 268.06,-141.22 268.06,-300.08 0,-213.279 -163.49,-330.958 -356.43,-330.958 -178.23,0 -315.21,79.418 -372.65,226.528 l 178.21,132.38 c 32.42,-92.67 116.37,-150.04 200.33,-150.04 73.63,0 126.67,39.72 126.67,105.91 0,61.79 -39.78,100.03 -187.07,152.98 -159.08,57.36 -276.91,136.8 -276.91,307.44 0,164.75 136.98,289.77 335.83,289.77 157.6,0 279.85,-63.25 337.3,-188.28 l -178.23,-123.56 c -33.87,76.49 -86.9,119.15 -167.91,119.15 -67.76,0 -117.83,-36.78 -117.83,-89.73 0,-60.31 55.97,-97.08 210.63,-151.51 z m -764.94,416.29 h 223.89 V 875.16 h -223.89 z m -460.85,-832.57 c 95.74,0 150.24,44.13 150.24,129.44 0,85.32 -54.5,129.45 -150.24,129.45 h -123.73 v -258.89 z m -123.73,635.46 v -217.71 h 117.85 c 69.21,0 116.34,39.72 116.34,108.85 0,69.14 -47.13,108.86 -116.34,108.86 z m 497.85,-526.61 c 0,-177.99 -139.93,-305.96 -365.28,-305.96 h -356.44 v 1029.68 h 343.19 c 198.83,0 329.92,-95.62 329.92,-248.59 0,-116.21 -54.5,-186.82 -135.51,-220.65 108.99,-41.19 184.12,-116.21 184.12,-254.48 z m -832.56,732.54 v -617.81 c 0,-245.65 -150.23,-429.51 -425.67,-429.51 -275.42,0 -425.66,183.86 -425.66,429.51 v 617.81 h 223.88 v -600.15 c 0,-150.04 70.7,-235.35 201.78,-235.35 131.09,0 201.79,85.31 201.79,235.35 v 600.15 h 223.88" /></g></g></svg>