<?xml version="1.0" encoding="UTF-8" standalone="no"?>
<!DOCTYPE svg PUBLIC "-//W3C//DTD SVG 1.1//EN" "http://www.w3.org/Graphics/SVG/1.1/DTD/svg11.dtd">
<!-- Generated by Microsoft Visio, SVG Export developer_role.svg Page-1 -->
<svg xmlns="http://www.w3.org/2000/svg" xmlns:xlink="http://www.w3.org/1999/xlink" xmlns:ev="http://www.w3.org/2001/xml-events"
		xmlns:v="http://schemas.microsoft.com/visio/2003/SVGExtensions/" width="1.27172in" height="0.643308in"
		viewBox="0 0 91.5637 46.3182" xml:space="preserve" color-interpolation-filters="sRGB" class="st9">
	<v:documentProperties v:langID="3084" v:viewMarkup="false"/>

	<style type="text/css">
	<![CDATA[
		.st1 {fill:#556a8a;stroke:none;stroke-width:0.75}
		.st2 {fill:#f2f2f2;stroke:none;stroke-width:0.75}
		.st3 {fill:#333332;stroke:none;stroke-width:0.75}
		.st4 {fill:#231f20;stroke:none;stroke-width:0.75}
		.st5 {fill:#fcd09e;stroke:none;stroke-width:0.75}
		.st6 {fill:#c2b59b;stroke:none;stroke-width:0.75}
		.st7 {fill:#cacbd0;stroke:none;stroke-width:0.75}
		.st8 {fill:#ffffff;stroke:none;stroke-width:0.75}
		.st9 {fill:none;fill-rule:evenodd;font-size:12px;overflow:visible;stroke-linecap:square;stroke-miterlimit:3}
	]]>
	</style>

	<g v:mID="0" v:index="1" v:groupContext="foregroundPage">
		<title>Page-1</title>
		<v:pageProperties v:drawingScale="1" v:pageScale="1" v:drawingUnits="19" v:shadowOffsetX="9" v:shadowOffsetY="-9"/>
		<g id="group1-1" transform="translate(33.9231,-0.75)" v:mID="1" v:groupContext="group">
			<title>Developer #3</title>
			<g id="shape2-2" v:mID="2" v:groupContext="shape" transform="translate(12.5196,-2.20268E-13)">
				<title>Sheet.2</title>
				<path d="M17.72 17.53 C17.42 16.3 16.71 15 15.42 14.12 C12.52 12.11 10.07 13.19 10.07 13.19 C10.07 13.19 3.03 14.76
							 2.57 17.14 C2.31 18.48 3.15 19.9 3.15 19.9 L2.85 24.98 L12.72 28.96 L12.82 32.3 L1.64 32.3 C0.74 32.3
							 0 32.93 0 33.7 L0 34.07 C0 34.84 0.74 35.46 1.64 35.46 L9.89 35.46 L9.89 42.52 L6.5 43.66 C6.48 43.65
							 6.45 43.64 6.43 43.64 L4.99 43.64 C4.59 43.64 4.27 44.24 4.27 44.97 C4.27 45.7 4.59 46.29 4.99 46.29
							 L6.43 46.29 C6.82 46.29 7.15 45.7 7.15 44.97 C7.15 44.63 7.08 44.33 6.97 44.1 L9.74 43.36 L9.25 43.91
							 L8.06 43.91 C7.7 43.91 7.41 44.45 7.41 45.11 C7.41 45.78 7.7 46.32 8.06 46.32 L9.37 46.32 L9.37 46.32
							 L9.37 46.32 C9.73 46.32 10.02 45.78 10.02 45.11 C10.02 44.69 9.9 44.31 9.72 44.1 L10.57 43.28 L13.82
							 44.14 C13.66 44.36 13.57 44.62 13.57 44.91 C13.57 45.66 14.18 46.27 14.93 46.27 C15.68 46.27 16.29 45.66
							 16.29 44.91 C16.29 44.16 15.68 43.55 14.93 43.55 C14.72 43.55 14.53 43.6 14.35 43.69 L10.75 42.52 L10.75
							 35.46 L15.57 35.46 C16.47 35.46 17.21 34.84 17.21 34.07 L17.21 33.7 C17.21 33.04 16.68 32.5 15.96 32.35
							 C16.43 32.34 17.21 32.15 17.61 30.99 C19.06 26.8 20.06 20.76 20.6 17.67 C20.8 16.56 19.81 16.35 17.72
							 17.53 Z" class="st1"/>
			</g>
			<g id="shape3-4" v:mID="3" v:groupContext="shape" transform="translate(-1.66867E-13,-12.3376)">
				<title>Sheet.3</title>
				<path d="M9.07 41.67 C9.07 41.67 2.3 46.32 0.7 41.93 C0 39.95 2.72 39.14 2.72 39.14 L8.02 39.41 L9.07 41.67 Z"
						class="st2"/>
			</g>
			<g id="shape4-6" v:mID="4" v:groupContext="shape" transform="translate(0.723696,-15.2704)">
				<title>Sheet.4</title>
				<path d="M9.02 44.28 C9.02 44.28 4.42 46.32 2.6 46.3 C2.05 46.29 1 45.76 0.61 44.97 C0 43.73 0.89 41.88 2.51 42.06
							 C5.24 42.37 6.03 42.05 6.03 42.05 C6.03 42.05 8.06 41.15 8.7 40.98 C9.34 40.82 10.32 42.83 10.32 42.83
							 L9.02 44.28 Z" class="st3"/>
			</g>
			<g id="shape5-8" v:mID="5" v:groupContext="shape" transform="translate(1.10303,-15.5178)">
				<title>Sheet.5</title>
				<path d="M1.85 42.43 C1.85 42.43 2.72 42.71 3.17 43.85 C3.64 45.06 3.53 46.01 3.53 46.01 C3.53 46.01 2.98 46.32 2.48
							 46.22 C1.97 46.13 0.58 45.69 0.36 44.58 C0 42.72 1.85 42.43 1.85 42.43 ZM3.59 43.07 C4.13 43.6 4.31
							 44.32 4.29 45.06 C4.29 45.32 4.68 45.32 4.69 45.06 C4.7 44.22 4.48 43.39 3.86 42.79 C3.68 42.61 3.41
							 42.89 3.59 43.07 ZM4.35 42.99 C4.88 43.45 5.07 44.09 5.06 44.77 C5.06 45.03 5.45 45.03 5.45 44.77 C5.47
							 43.99 5.23 43.24 4.63 42.71 C4.44 42.54 4.16 42.82 4.35 42.99 ZM5.12 42.87 C5.64 43.31 5.84 43.91 5.83
							 44.58 C5.82 44.83 6.22 44.83 6.22 44.58 C6.24 43.82 5.99 43.09 5.4 42.59 C5.21 42.43 4.93 42.71 5.12
							 42.87 Z" class="st2"/>
			</g>
			<g id="shape6-10" v:mID="6" v:groupContext="shape" transform="translate(12.7657,-31.0029)">
				<title>Sheet.6</title>
				<path d="M0.73 45.68 C0.94 46.16 1.63 46.32 2.26 46.04 L2.48 45.94 C3.11 45.65 3.45 45.04 3.24 44.56 L2.72 43.41
							 C2.51 42.93 1.83 42.77 1.19 43.05 L0.97 43.15 C0.34 43.43 0 44.05 0.21 44.53 L0.73 45.68 Z"
						class="st4"/>
			</g>
			<g id="shape7-12" v:mID="7" v:groupContext="shape" transform="translate(12.9234,-31.4289)">
				<title>Sheet.7</title>
				<path d="M0.73 45.63 C0.94 46.1 1.5 46.32 1.98 46.1 L2.15 46.03 C2.63 45.82 2.84 45.25 2.63 44.78 L2.11 43.62 C1.9
							 43.14 1.34 42.93 0.86 43.14 L0.69 43.22 C0.22 43.43 0 43.99 0.21 44.47 L0.73 45.63 Z" class="st5"/>
			</g>
			<g id="shape8-14" v:mID="8" v:groupContext="shape" transform="translate(21.7156,-34.9429)">
				<title>Sheet.8</title>
				<path d="M2.63 44.78 C2.84 45.26 2.63 45.82 2.15 46.03 L1.98 46.1 C1.5 46.32 0.94 46.1 0.73 45.63 L0.21 44.47 C0
							 43.99 0.21 43.43 0.69 43.22 L0.86 43.14 C1.34 42.93 1.9 43.14 2.11 43.62 L2.63 44.78 Z" class="st4"/>
			</g>
			<g id="shape9-16" v:mID="9" v:groupContext="shape" transform="translate(21.2513,-35.1467)">
				<title>Sheet.9</title>
				<path d="M2.63 44.78 C2.84 45.26 2.63 45.82 2.15 46.03 L1.98 46.1 C1.5 46.32 0.94 46.1 0.73 45.63 L0.21 44.47 C0
							 43.99 0.21 43.43 0.69 43.22 L0.86 43.14 C1.34 42.93 1.9 43.14 2.11 43.62 L2.63 44.78 Z" class="st5"/>
			</g>
			<g id="shape10-18" v:mID="10" v:groupContext="shape" transform="translate(13.532,-28.7377)">
				<title>a</title>
				<path d="M0 40.25 L4.22 38.37 L8.43 36.49 C8.43 36.49 12.56 40.71 6.37 46.32 C1.78 45.09 0 40.25 0 40.25 Z"
						class="st5"/>
			</g>
			<g id="shape11-20" v:mID="11" v:groupContext="shape" transform="translate(18.4433,-28.048)">
				<title>Sheet.11</title>
				<path d="M0.15 45.94 C0.3 46.28 0.93 46.32 1.56 46.04 C2.2 45.75 2.59 45.25 2.44 44.92 C2.29 44.58 1.66 44.54 1.02
							 44.83 C0.39 45.11 0 45.61 0.15 45.94 Z" class="st6"/>
			</g>
			<g id="shape12-22" v:mID="12" v:groupContext="shape" transform="translate(10.8729,-31.6694)">
				<title>Sheet.12</title>
				<path d="M6.56 40.6 C4.77 41.4 3.28 42.56 2.17 43.91 L1.1 41.51 C0 39.04 1.1 36.16 3.57 35.06 L4.43 34.67 C6.9 33.57
							 9.78 34.67 10.88 37.14 L11.96 39.54 C10.21 39.47 8.35 39.8 6.56 40.6 ZM3.68 39.12 C5.62 38.29 9.79 37.33
							 11.68 37.72 L11.7 37.73 L11.7 37.73 C11.85 37.76 11.91 37.84 11.92 37.94 C12.45 39.13 12.83 39.99 13.37
							 41.18 C13.48 41.45 13.17 41.63 12.87 41.65 C4.77 42.12 3.12 44.52 3.13 45.99 C3.13 46.29 2.57 46.32
							 2.45 46.05 L1.64 44.24 L1.1 43.03 C0.91 42.59 1.83 39.92 3.68 39.12 ZM7.02 43.92 L6.54 42.85 C6.43 42.61
							 6.58 42.31 6.88 42.18 L8.68 41.37 C8.97 41.24 9.3 41.33 9.41 41.57 L9.88 42.64 C9.99 42.88 9.84 43.18
							 9.55 43.31 L7.74 44.12 C7.45 44.25 7.12 44.16 7.02 43.92 ZM6.99 42.43 C6.85 42.49 6.77 42.63 6.82 42.73
							 L7.3 43.8 C7.34 43.9 7.49 43.93 7.63 43.87 L9.44 43.06 C9.57 43 9.65 42.87 9.6 42.77 L9.13 41.7 C9.08
							 41.6 8.93 41.56 8.8 41.63 L6.99 42.43 ZM3.42 45.53 L2.94 44.46 C2.84 44.22 2.99 43.92 3.28 43.79 L5.09
							 42.98 C5.38 42.85 5.7 42.94 5.81 43.18 L6.29 44.25 C6.39 44.49 6.24 44.79 5.95 44.92 L4.15 45.73 C3.85
							 45.86 3.53 45.77 3.42 45.53 ZM3.39 44.04 C3.25 44.1 3.18 44.23 3.22 44.34 L3.7 45.4 C3.75 45.5 3.9 45.54
							 4.03 45.47 L5.84 44.67 C5.98 44.61 6.05 44.47 6.01 44.37 L5.53 43.3 C5.49 43.2 5.34 43.17 5.2 43.23
							 L3.39 44.04 ZM7.19 42.7 C7.23 42.79 7.33 42.84 7.4 42.81 L9.08 42.06 C9.15 42.03 9.18 41.92 9.14 41.83
							 C9.1 41.74 9 41.69 8.93 41.72 L7.25 42.47 C7.17 42.5 7.15 42.61 7.19 42.7 ZM8.49 42.32 C8.62 42.6 8.53
							 42.91 8.3 43.02 C8.07 43.12 7.78 42.97 7.66 42.69 L8.49 42.32 ZM5.19 43.59 C5.23 43.69 5.2 43.79 5.13
							 43.82 L3.45 44.57 C3.38 44.61 3.28 44.56 3.24 44.46 C3.2 44.37 3.22 44.27 3.3 44.23 L4.98 43.49 C5.05
							 43.45 5.15 43.5 5.19 43.59 ZM4.03 44.31 C4.16 44.59 4.45 44.74 4.68 44.63 C4.91 44.53 5 44.22 4.87 43.94
							 L4.03 44.31 ZM5.65 43.28 L6.73 42.8 L6.84 43.06 L5.76 43.54 L5.65 43.28 Z" class="st4"/>
			</g>
			<g id="shape13-24" v:mID="13" v:groupContext="shape" transform="translate(22.8388,-20.5483)">
				<title>Sheet.13</title>
				<path d="M3.45 40.53 L3.35 43.96 L0 43.62 L1.08 45.85 L5.78 46.32 L6.65 41.11 C6.65 41.11 7.03 40.45 5.57 39.93 C3.71
							 39.27 3.45 40.53 3.45 40.53 Z" class="st5"/>
			</g>
			<g id="shape14-26" v:mID="14" v:groupContext="shape" transform="translate(7.20716,-19.5178)">
				<title>Sheet.14</title>
				<path d="M4.04 46.32 L0.69 39.84 C0.69 39.84 0 38.79 0.69 38.54 C1.39 38.28 12.95 35.81 12.95 35.81 C12.95 35.81
							 14.02 35.47 14.5 36.62 C14.97 37.78 16.57 43.61 16.57 43.61 L19.69 45.12 L14.92 44.79 L4.04 46.32 Z"
						class="st2"/>
			</g>
			<g id="shape15-28" v:mID="15" v:groupContext="shape" transform="translate(7.53747,-4.04888)">
				<title>Sheet.15</title>
				<path d="M16.16 28.32 C16.01 28.23 15.88 28.17 15.79 28.14 C12.74 27.13 5.28 30 1.95 30.13 C0.94 30.17 0.19 30.96
							 0.06 32.52 C0 33.17 1.02 32.88 2.25 32.84 C2.52 32.83 2.91 32.85 3.37 32.88 C3.09 33.31 2.87 33.8 2.81
							 34.37 C2.6 36.3 1.65 46.28 1.65 46.28 L6.23 46.32 L6.85 36.47 L12.43 37.34 L16.55 37.32 C16.55 37.32
							 18.43 36.98 20.84 34.27 C22.93 31.93 17.64 29.06 16.16 28.32 Z" class="st4"/>
			</g>
			<g id="shape16-30" v:mID="16" v:groupContext="shape" transform="translate(9.43364,-3.15925)">
				<title>Sheet.16</title>
				<path d="M0.84 44.99 L0.44 45.41 L0.24 44.48 L0 44.47 L0.2 46.32 L1.11 45.05 L0.84 44.99 Z" class="st7"/>
			</g>
			<g id="shape17-32" v:mID="17" v:groupContext="shape" transform="translate(3.98315,-0.0825467)">
				<title>Sheet.17</title>
				<path d="M9.63 45.28 L10.01 44.48 L10.17 43.62 L10.17 42.84 L11.43 41.24 L7.58 40.45 L6.98 42.09 L7 42.06 L6.96 42.08
							 L6.4 41.91 L5.72 42.78 C5.81 42.4 5.83 41.87 5.45 41.39 C5.62 42.42 4.28 43.23 4.28 43.23 C2.41 43.53
							 0 44.08 0.03 44.93 C0.09 46.32 0.4 46.24 0.4 46.24 L9.67 46.24 L9.58 45.26 L9.63 45.28 Z" class="st3"/>
			</g>
			<g id="shape18-34" v:mID="18" v:groupContext="shape" transform="translate(3.70884,-0.0604382)">
				<title>Sheet.18</title>
				<path d="M2.7 43.57 C2.7 43.57 4.66 43.7 5.14 44.11 C5.62 44.52 5.62 45.06 5.62 45.06 L0.34 45.07 C0.34 45.07 0 44.22
							 1.04 43.97 C1.68 43.82 2.7 43.57 2.7 43.57 ZM10.35 46.02 C10.35 46.19 10.23 46.32 10.08 46.32 L0.38
							 46.32 C0.23 46.32 0.11 46.19 0.11 46.02 L0.11 45.36 C0.11 45.19 0.23 45.06 0.38 45.06 L10.08 45.06 C10.23
							 45.06 10.35 45.19 10.35 45.36 L10.35 46.02 Z" class="st8"/>
			</g>
			<g id="shape19-36" v:mID="19" v:groupContext="shape" transform="translate(7.26003,-0.815615)">
				<title>Sheet.19</title>
				<rect x="0" y="46.202" width="6.43684" height="0.11619" class="st7"/>
			</g>
			<g id="shape20-38" v:mID="20" v:groupContext="shape" transform="translate(3.99613,-1.31883)">
				<title>Sheet.20</title>
				<rect x="0" y="46.2025" width="9.77476" height="0.11571" class="st3"/>
			</g>
			<g id="shape21-40" v:mID="21" v:groupContext="shape" transform="translate(7.16463,-0.396633)">
				<title>Sheet.21</title>
				<path d="M0.1 46.2 L6.53 46.2 L6.53 46.32 L0.1 46.32 L0.1 46.2 ZM0.33 43.86 C1.05 43.65 1.73 43.9 2.24 44.37 C2.41
							 44.52 2.67 44.29 2.5 44.14 C1.91 43.59 1.07 43.31 0.23 43.54 C0 43.61 0.1 43.92 0.33 43.86 ZM1.16 43.54
							 C1.5 43.46 1.8 43.47 2.13 43.56 C2.41 43.63 2.61 43.81 2.84 43.96 C3.03 44.08 3.22 43.8 3.03 43.68 C2.76
							 43.5 2.55 43.34 2.23 43.24 C1.85 43.12 1.44 43.13 1.06 43.23 C0.83 43.28 0.93 43.6 1.16 43.54 ZM1.65
							 43.21 C2.12 43.01 2.88 43.17 3.2 43.54 C3.35 43.7 3.67 43.54 3.52 43.37 C3.07 42.86 2.14 42.64 1.46
							 42.93 C1.25 43.02 1.44 43.3 1.65 43.21 Z" class="st7"/>
			</g>
			<g id="shape22-42" v:mID="22" v:groupContext="shape" transform="translate(12.569,-3.45735)">
				<title>Sheet.22</title>
				<path d="M1.14 45.73 C0.97 46.11 0.62 46.32 0.35 46.2 C0.08 46.08 0 45.67 0.17 45.3 C0.34 44.92 0.69 44.71 0.96 44.83
							 C1.23 44.95 1.31 45.36 1.14 45.73 Z" class="st8"/>
			</g>
			<g id="shape23-44" v:mID="23" v:groupContext="shape" transform="translate(21.1458,-29.3991)">
				<title>Sheet.23</title>
				<path d="M1.69 40.12 C1.69 40.12 3.12 42.07 3.12 42.94 C3.12 43.97 2.44 45.34 0.7 46.32 C0 45.77 0 44.3 0 44.3 L1.69
							 40.12 Z" class="st5"/>
			</g>
		</g>
	</g>
</svg>
